<svg width="30" height="30" viewBox="0 0 30 30" fill="none" xmlns="http://www.w3.org/2000/svg">
<circle cx="15.1555" cy="14.9563" r="14.71" fill="black" fill-opacity="0.6"/>
<path fill-rule="evenodd" clip-rule="evenodd" d="M21.2103 8.90169C21.2585 8.94973 21.2967 9.00679 21.3228 9.06962C21.3488 9.13245 21.3623 9.19981 21.3623 9.26783C21.3623 9.33585 21.3488 9.40321 21.3228 9.46603C21.2967 9.52886 21.2585 9.58593 21.2103 9.63397L9.83307 21.0112C9.73596 21.1083 9.60425 21.1629 9.46693 21.1629C9.3296 21.1629 9.19789 21.1083 9.10078 21.0112C9.00368 20.9141 8.94912 20.7824 8.94912 20.6451C8.94912 20.5078 9.00368 20.376 9.10078 20.2789L20.478 8.90169C20.5261 8.85353 20.5831 8.81532 20.646 8.78925C20.7088 8.76318 20.7762 8.74976 20.8442 8.74976C20.9122 8.74976 20.9796 8.76318 21.0424 8.78925C21.1052 8.81532 21.1623 8.85353 21.2103 8.90169Z" fill="#F2F2F2"/>
<path fill-rule="evenodd" clip-rule="evenodd" d="M9.10078 8.90169C9.05262 8.94973 9.01441 9.00679 8.98834 9.06962C8.96227 9.13245 8.94885 9.19981 8.94885 9.26783C8.94885 9.33585 8.96227 9.40321 8.98834 9.46603C9.01441 9.52886 9.05262 9.58593 9.10078 9.63397L20.478 21.0112C20.5751 21.1083 20.7069 21.1629 20.8442 21.1629C20.9815 21.1629 21.1132 21.1083 21.2103 21.0112C21.3074 20.9141 21.362 20.7824 21.362 20.6451C21.362 20.5078 21.3074 20.376 21.2103 20.2789L9.83307 8.90169C9.78503 8.85353 9.72796 8.81532 9.66513 8.78925C9.6023 8.76318 9.53495 8.74976 9.46693 8.74976C9.3989 8.74976 9.33155 8.76318 9.26872 8.78925C9.20589 8.81532 9.14882 8.85353 9.10078 8.90169Z" fill="#F2F2F2"/>
</svg>
