<svg width="37" height="29" viewBox="0 0 37 29" fill="none" xmlns="http://www.w3.org/2000/svg">
<path d="M16.2112 14.7216C16.2112 18.5387 15.3027 21.9578 13.8727 24.3971C12.4324 26.8542 10.5517 28.1913 8.62556 28.1913C6.69938 28.1913 4.81874 26.8542 3.37838 24.3971C1.94845 21.9578 1.0399 18.5387 1.0399 14.7216C1.0399 10.9045 1.94845 7.48538 3.37838 5.04608C4.81874 2.58901 6.69938 1.25195 8.62556 1.25195C10.5517 1.25195 12.4324 2.58901 13.8727 5.04608C15.3027 7.48538 16.2112 10.9045 16.2112 14.7216Z" fill="white" stroke="black" stroke-width="1.5"/>
<path d="M35.8245 14.7216C35.8245 18.5387 34.9159 21.9578 33.486 24.3971C32.0457 26.8542 30.165 28.1913 28.2388 28.1913C26.3127 28.1913 24.432 26.8542 22.9917 24.3971C21.5617 21.9578 20.6532 18.5387 20.6532 14.7216C20.6532 10.9045 21.5617 7.48538 22.9917 5.04608C24.432 2.58901 26.3127 1.25195 28.2388 1.25195C30.165 1.25195 32.0457 2.58901 33.486 5.04608C34.9159 7.48538 35.8245 10.9045 35.8245 14.7216Z" fill="white" stroke="black" stroke-width="1.5"/>
<ellipse cx="12.5482" cy="14.7215" rx="4.413" ry="6.37433" fill="black"/>
<ellipse cx="32.1615" cy="14.7215" rx="4.413" ry="6.37433" fill="black"/>
</svg>
