<svg width="87" height="28" viewBox="0 0 87 28" fill="none" xmlns="http://www.w3.org/2000/svg">
<path d="M24.7487 13.518C24.65 20.252 19.1519 25.5942 12.3745 25.5317C5.42083 25.4727 0.0848746 19.9605 0.187082 12.9487C0.282241 6.54446 6.01645 1.21276 12.6776 1.33078C19.3845 1.4488 24.8438 6.96099 24.7487 13.518ZM19.677 21.2552C23.1521 18.3221 24.2059 13.341 22.4754 9.3075C20.7026 5.18029 16.1808 2.37907 11.867 2.73313C6.91517 3.14272 2.92907 6.46115 1.87175 11.057C1.00474 14.8266 2.53434 19.5231 5.28337 21.0921C5.28337 19.0927 5.2869 17.1905 5.28337 15.2848C5.28337 14.7607 5.35739 14.3441 5.95301 14.1185C6.52749 13.9033 6.79887 14.2504 7.11254 14.5594C8.17338 15.6007 9.23071 16.6455 10.2916 17.6869C10.6546 18.0444 11.0246 18.3637 10.4924 18.9052C9.92501 19.4849 9.64659 18.9955 9.28005 18.6866C8.45181 17.9889 7.86324 17.01 6.70018 16.4615C6.70018 18.2214 6.7601 19.8286 6.67904 21.4322C6.6297 22.3799 7.11254 22.7548 7.86324 23.1296C8.67033 23.5323 9.1144 23.147 9.62192 22.6402C12.2758 20.0056 14.9402 17.3849 17.6117 14.7711C17.9994 14.3893 18.299 13.7957 19.0779 14.1567C19.8039 14.4934 19.67 15.0904 19.6735 15.6458C19.6876 17.4126 19.677 19.1795 19.677 21.2517V21.2552ZM10.785 23.9592C13.2732 24.4452 15.6205 23.9211 17.8373 22.668C18.0065 22.5743 18.1756 22.3174 18.1792 22.1334C18.2038 20.2937 18.1933 18.454 18.1933 16.7531C15.7191 19.1586 13.2732 21.5398 10.785 23.9627V23.9592Z" fill="black"/>
<path d="M67.5349 14.8716C67.5349 12.2127 67.5103 9.55378 67.542 6.89487C67.5737 4.09712 69.4381 2.81627 72.1061 3.80555C72.744 4.04158 73.181 3.91315 73.7485 3.70141C76.0111 2.85445 77.9213 4.03117 78.1187 6.40891C78.2174 7.61687 78.1469 8.83525 78.1681 10.0502C78.1786 10.7131 78.0165 11.1887 77.1953 11.147C76.4834 11.1123 76.3354 10.6923 76.3424 10.0988C76.353 9.00187 76.3283 7.90151 76.3389 6.80462C76.3459 5.94725 76.0605 5.27037 75.1018 5.23566C74.1467 5.20095 73.7731 5.86741 73.7414 6.7109C73.7026 7.80779 73.7132 8.90814 73.7132 10.005C73.7132 10.6437 73.611 11.1679 72.7722 11.1436C72.0109 11.1193 71.9757 10.6055 71.9722 10.0606C71.9651 9.07823 71.9722 8.09589 71.9581 7.11356C71.9475 6.17982 71.7501 5.25649 70.6047 5.25302C69.4522 5.25302 69.2654 6.15899 69.2654 7.10662C69.2689 12.4244 69.276 17.7422 69.2478 23.0635C69.2478 23.5703 69.5897 24.3097 68.7403 24.5145C67.7922 24.7436 67.5173 24.2541 67.5279 23.3759C67.5596 20.5435 67.5385 17.711 67.5385 14.8785L67.5349 14.8716Z" fill="black"/>
<path d="M83.8741 24.2718C80.7339 24.8341 78.7109 23.4942 78.6827 20.8319C78.658 18.5652 80.2369 17.0344 82.5525 17.0865C83.5252 17.1108 84.4556 17.51 85.4707 17.2601C86.1403 17.0969 86.38 17.6176 86.3764 18.2181C86.3659 20.2348 86.4046 22.255 86.32 24.2683C86.2637 25.5631 85.6293 26.6044 84.3358 27.08C82.8802 27.618 81.4493 27.5381 80.1841 26.5662C79.821 26.2851 79.1479 25.9727 79.7188 25.3513C80.1382 24.8966 80.5929 24.73 81.2273 25.2194C82.4256 26.1427 83.564 26.2191 84.3006 24.6154C84.4451 24.1503 84.2547 24.0913 83.8671 24.2683L83.8741 24.2718ZM84.4874 20.5819C84.3746 19.4989 83.86 18.5548 82.4643 18.6173C81.1286 18.6763 80.4977 19.5718 80.5224 20.8319C80.5471 22.0954 81.2273 22.984 82.5595 22.9527C83.8953 22.9215 84.4697 22.0016 84.4909 20.5819H84.4874Z" fill="black"/>
<path d="M29.4643 8.10646C29.4643 7.47124 29.4114 6.82908 29.4749 6.2008C29.6828 4.15282 31.5754 2.88932 33.5139 3.61826C34.4126 3.95496 35.1139 3.92372 35.9986 3.60437C37.8665 2.9275 39.7908 4.12158 39.9811 6.06889C40.1151 7.44347 40.0164 8.83888 40.027 10.2239C40.0305 10.755 39.8648 11.116 39.2445 11.1333C38.5643 11.1507 38.3035 10.814 38.307 10.1787C38.3141 9.19641 38.3035 8.21407 38.3 7.23173C38.3 6.25634 38.2084 5.23235 36.922 5.24623C35.7201 5.26012 35.6778 6.24939 35.6778 7.1519C35.6778 8.13423 35.6673 9.11657 35.6708 10.0989C35.6708 10.6821 35.5263 11.1194 34.8108 11.1472C34.0214 11.1784 33.8029 10.7445 33.8064 10.0642C33.8134 8.9083 33.8064 7.75241 33.7782 6.59998C33.7606 5.80509 33.3729 5.23235 32.52 5.23235C31.6847 5.23235 31.2477 5.7912 31.2159 6.57915C31.1701 7.73158 31.1701 8.88747 31.1772 10.0434C31.1807 10.7133 31.0115 11.1784 30.2009 11.1333C29.4255 11.0882 29.4573 10.5467 29.4537 10.0156C29.4502 9.38038 29.4537 8.74516 29.4537 8.10993C29.4573 8.10993 29.4608 8.10993 29.4678 8.10993L29.4643 8.10646Z" fill="black"/>
<path d="M40.0269 20.2312C39.9564 21.0573 40.1961 22.0501 39.745 22.9873C39.0577 24.4174 37.4753 25.129 35.9351 24.5285C35.121 24.2126 34.476 24.1571 33.6301 24.4903C31.5366 25.3095 29.57 23.9696 29.4643 21.7446C29.4079 20.5367 29.4643 19.3218 29.4502 18.1138C29.4431 17.5341 29.5312 17.0898 30.2784 17.0933C30.9692 17.0933 31.1948 17.423 31.1807 18.0583C31.1595 19.1517 31.1877 20.2486 31.1877 21.3454C31.1877 22.2028 31.5472 22.8971 32.4389 22.9387C33.4786 22.9873 33.7923 22.2132 33.7958 21.3038C33.7993 20.3805 33.7887 19.4571 33.8099 18.5373C33.824 17.8673 33.6478 17.0655 34.7791 17.1002C35.9245 17.1349 35.639 17.9784 35.6672 18.6136C35.706 19.478 35.6884 20.3423 35.6813 21.2066C35.6743 22.0987 35.9069 22.9248 36.9466 22.9387C37.9546 22.9526 38.2964 22.1889 38.2964 21.2726C38.2964 20.2347 38.3105 19.1968 38.3035 18.1589C38.3 17.5966 38.3564 17.1315 39.1035 17.0968C39.9459 17.0551 40.0586 17.5376 40.034 18.1936C40.0093 18.8254 40.0304 19.4606 40.0304 20.2381L40.0269 20.2312Z" fill="black"/>
<path d="M56.8031 19.5926C56.8031 20.8631 56.7714 22.137 56.8137 23.4074C56.8419 24.3377 56.4119 24.6952 55.5343 24.5321C54.9458 24.4245 54.4136 24.4418 53.8215 24.6085C52.2602 25.0458 50.8857 24.6085 49.9023 23.3415C48.838 21.9704 48.8274 20.4153 49.5957 18.9262C50.3429 17.4787 51.7139 16.7845 53.2682 17.1455C54.84 17.51 55.0621 16.9129 54.9493 15.6459C54.8894 14.9795 54.9634 14.3686 55.9397 14.4033C56.8313 14.4345 56.7961 15.0281 56.7996 15.6078C56.8137 16.9372 56.8031 18.2667 56.8031 19.5961V19.5926ZM50.9209 20.8874C50.9139 22.2307 51.8161 23.2374 53.0179 23.161C54.4418 23.0707 54.8859 22.1023 54.8964 20.8909C54.907 19.6586 54.3924 18.7318 53.0215 18.5999C51.8584 18.4923 50.9315 19.544 50.9244 20.8839L50.9209 20.8874Z" fill="black"/>
<path d="M65.8397 19.6204C65.8397 20.8909 65.8538 22.1613 65.8327 23.4318C65.8256 23.8657 65.9067 24.6154 65.2864 24.4905C63.859 24.2024 62.5373 25.0181 61.1311 24.6814C59.0552 24.1885 57.9556 22.4876 58.2658 20.1828C58.5266 18.2285 60.1619 16.8366 62.2413 17.142C63.7004 17.3572 64.2784 17.1316 64.0317 15.6078C63.9189 14.9135 64.0951 14.3616 65.0432 14.3998C65.9772 14.438 65.8291 15.0871 65.8397 15.6321C65.8609 16.9615 65.8468 18.2875 65.8468 19.617L65.8397 19.6204ZM64.0176 20.9152C63.9612 19.6551 63.4924 18.6103 62.0333 18.6173C60.5919 18.6242 60.0597 19.6239 60.0632 20.9325C60.0632 22.1787 60.5778 23.0916 61.9417 23.1471C63.429 23.2096 63.9295 22.2307 64.0176 20.9152Z" fill="black"/>
<path d="M49.06 7.54424C49.06 8.06491 49.0318 8.58558 49.0671 9.10279C49.1587 10.4947 49.053 11.6367 47.104 10.9876C46.8608 10.9078 46.533 11.0362 46.2581 11.1091C44.5382 11.5604 43.0721 11.1542 42.0817 9.69288C41.1266 8.28012 41.1231 6.72157 42.0042 5.26369C42.9381 3.71902 44.4677 3.27819 46.1242 3.72944C47.0511 3.98283 48.1754 3.16017 48.7851 3.98283C49.4548 4.88533 48.9614 6.11412 49.06 7.19365C49.0706 7.3082 49.06 7.42622 49.06 7.54077V7.54424ZM43.2095 7.60325C43.3012 8.68972 43.8369 9.69982 45.2643 9.68594C46.7269 9.67553 47.2027 8.63071 47.178 7.3325C47.1569 6.08635 46.5789 5.22551 45.2607 5.10054C44.1435 4.99294 43.206 6.11065 43.206 7.60325H43.2095Z" fill="black"/>
<path d="M45.4087 21.6511C45.1162 21.6511 44.8131 21.6025 44.5347 21.6615C44.0272 21.7726 43.0932 21.3005 43.1038 22.085C43.1143 22.9111 43.9813 23.2027 44.8307 23.1541C45.4616 23.1159 45.9022 22.741 46.3357 22.3453C46.8291 21.8941 47.1886 22.2481 47.5304 22.5675C47.9498 22.9597 47.6714 23.2721 47.393 23.5984C46.4343 24.7196 44.3091 25.0979 42.8641 24.3933C41.3839 23.6678 40.6191 21.9496 40.968 20.1272C41.3239 18.2736 42.4835 17.2011 44.2527 17.0969C46.0361 16.9928 47.326 17.8432 47.8652 19.4781C48.5173 21.4532 48.2882 21.658 45.4158 21.6546L45.4087 21.6511ZM44.3972 20.0995C44.8906 19.9259 45.7682 20.4015 45.8317 19.61C45.8881 18.9228 45.1409 18.6034 44.4536 18.6069C43.7558 18.6069 43.065 18.9505 43.1002 19.6448C43.139 20.3563 43.9426 19.9467 44.3972 20.0995Z" fill="black"/>
<path d="M62.0651 8.12426C61.6915 8.12426 61.4553 8.09649 61.2263 8.1312C60.6835 8.20757 60.0315 7.87433 59.6403 8.44708C59.5557 8.57204 59.7742 8.9851 59.9504 9.17255C60.4262 9.67239 61.0465 9.86678 61.7056 9.60644C62.125 9.43983 62.5303 9.17949 62.8722 8.88444C63.3867 8.43666 63.718 8.74907 64.0669 9.07188C64.4687 9.4433 64.2749 9.76611 63.9929 10.1167C62.8087 11.5711 60.028 11.6926 58.5935 10.3389C57.0146 8.84973 57.0816 5.85759 58.7275 4.42401C60.2218 3.12232 62.6783 3.33753 63.8766 4.91344C64.4934 5.72222 64.9762 6.73927 64.4969 7.64871C63.9753 8.63799 62.7911 7.90905 62.0686 8.12773L62.0651 8.12426ZM60.9514 6.57265C61.4413 6.39215 62.3047 6.88506 62.3787 6.07281C62.4316 5.47924 61.7232 5.14948 61.117 5.11477C60.4227 5.07311 59.7037 5.40634 59.6931 6.08669C59.6826 6.8434 60.5073 6.40951 60.9514 6.57612V6.57265Z" fill="black"/>
<path d="M52.7043 6.31193C54.3361 5.39555 54.7097 2.99351 57.1979 3.93419C56.4825 4.78462 55.8657 5.60729 55.1503 6.33623C54.537 6.96104 54.5088 7.43312 55.1291 8.07528C55.9538 8.93613 56.6834 9.88722 57.5539 10.9216C54.8119 11.8311 54.5088 9.0715 52.9546 8.34256C52.5246 8.97431 52.7466 9.61994 52.7219 10.2205C52.6938 10.8834 52.4153 11.1577 51.7527 11.1368C51.1501 11.116 50.9386 10.7967 50.9421 10.2482C50.9456 7.47477 50.9456 4.70132 50.9421 1.93133C50.9421 1.33082 51.1042 0.935112 51.8232 0.931641C52.5352 0.931641 52.7184 1.31347 52.7149 1.92092C52.7043 3.29897 52.7149 4.67702 52.7149 6.31193H52.7043Z" fill="black"/>
<path d="M82.7075 8.40852C83.4053 6.81526 83.9234 5.71837 84.364 4.59025C84.6847 3.778 85.2944 3.48295 86.024 3.77105C86.9615 4.139 86.2002 4.77769 86.0275 5.19423C84.9843 7.70387 83.8635 10.1823 82.7815 12.678C82.5207 13.2751 82.3234 13.8791 81.4669 13.8166C80.8819 13.7715 80.2334 13.6847 80.7444 12.9523C82.2705 10.7654 81.0193 8.90837 80.1594 6.98187C79.8739 6.34665 79.5778 5.71837 79.3452 5.0658C79.1937 4.64231 78.5945 4.07652 79.3629 3.77453C79.9514 3.54196 80.6387 3.59055 80.9629 4.38545C81.4599 5.59688 82.0026 6.79096 82.704 8.40505L82.7075 8.40852Z" fill="black"/>
<path d="M71.0135 21.5886C71.0135 20.9534 70.9712 20.3147 71.0241 19.683C71.1615 18.0411 72.4021 16.9026 74.0304 16.8817C75.6516 16.8574 76.9592 17.9821 77.072 19.617C77.1601 20.8805 77.1002 22.1579 77.1107 23.4249C77.1178 24.0462 77.079 24.5946 76.2014 24.5565C75.3203 24.5183 75.3697 23.9108 75.3662 23.3277C75.3556 22.2898 75.3662 21.2484 75.3485 20.2106C75.3344 19.374 75.0243 18.6555 74.0797 18.652C73.1634 18.6451 72.7651 19.3046 72.751 20.1654C72.7299 21.3213 72.7158 22.4738 72.7334 23.6297C72.744 24.2927 72.4585 24.5703 71.7924 24.5565C71.1721 24.5426 70.9924 24.2163 71.0065 23.6678C71.0241 22.9771 71.01 22.2829 71.0135 21.5886Z" fill="black"/>
<path d="M12.5296 5.61449C12.8009 5.61449 13.0864 5.66308 13.3437 5.60754C16.1068 4.98968 17.7175 6.6836 19.2858 8.46083C19.818 9.06134 19.8321 9.68268 19.2612 10.2485C17.3157 12.1854 15.3632 14.1153 13.393 16.0245C12.8186 16.5833 12.1524 16.5625 11.5815 16.0071C9.61135 14.0945 7.65883 12.1646 5.71335 10.2311C5.10011 9.6202 5.1142 8.96068 5.7204 8.34629C6.44643 7.6104 7.20065 6.89881 7.9302 6.16293C8.33904 5.74639 8.8254 5.6006 9.40341 5.61102C10.4466 5.62837 11.4899 5.61449 12.5331 5.61449H12.5296ZM12.2969 13.4454C12.4062 13.4454 12.519 13.4385 12.6282 13.4385C13.3331 11.5606 14.0309 9.67921 14.7429 7.80132C14.9508 7.2494 14.8451 6.95435 14.1825 6.96477C13.0053 6.97865 11.8247 6.97865 10.6475 6.96477C10.0589 6.95782 9.95321 7.19386 10.1506 7.70759C10.8766 9.61673 11.585 11.5328 12.2969 13.4454ZM16.276 7.7909C15.6945 9.33904 15.127 10.8629 14.5561 12.3867C14.7253 12.5221 14.8944 12.6575 15.0601 12.7928C15.6416 12.0708 16.1738 11.2968 16.8188 10.6303C18.2567 9.14812 18.2602 9.04399 16.276 7.7909ZM8.68795 7.90892C8.5364 7.80479 8.38838 7.70412 8.23683 7.59999C7.91258 8.02694 7.60948 8.47472 7.25352 8.8739C6.96099 9.20366 6.92927 9.45706 7.23942 9.79376C8.117 10.7414 8.97695 11.7133 9.84043 12.6713L10.3338 12.3277C9.78404 10.8525 9.23423 9.38069 8.68443 7.90545L8.68795 7.90892Z" fill="black"/>
</svg>
