<svg width="25" height="22" viewBox="0 0 25 22" fill="none" xmlns="http://www.w3.org/2000/svg">
<path d="M9.24963 10.7129H10.6817L9.9951 8.56494L9.24963 10.7129Z" fill="#4C566C"/>
<path d="M12.4558 0.62207C5.82817 0.62207 0.455811 4.85927 0.455811 10.0891C0.455811 13.492 2.73074 16.4743 6.14765 18.1429C5.89614 19.0767 5.45203 20.7813 5.32061 21.3059C5.15747 21.9571 5.55853 21.948 5.82363 21.7739C6.02983 21.636 8.89841 20.2932 10.2285 19.391C10.9513 19.4973 11.6945 19.5538 12.4558 19.5538C19.0835 19.5538 24.4558 15.3166 24.4558 10.0891C24.4558 4.86154 19.0835 0.62207 12.4558 0.62207ZM6.60309 12.5288C6.60309 13.1031 5.32061 13.0963 5.32061 12.5197C5.32741 11.7306 5.32061 8.34581 5.32061 8.34581H4.08572C3.36064 8.34581 3.35838 7.16554 4.08572 7.16328C4.08572 7.16328 6.97696 7.18815 7.84252 7.18815C8.61064 7.18815 8.61064 8.39329 7.84252 8.39329C7.02681 8.39329 6.61442 8.39103 6.61442 8.39103L6.60989 12.5288H6.60309ZM11.3251 12.6735C11.0261 11.8821 11.1031 11.8482 11.1031 11.8482H8.84403L8.59705 12.7096C8.33421 13.3133 7.19675 12.8204 7.46185 12.2167C7.82666 11.3801 8.92333 8.22598 9.22696 7.55897C9.34705 7.29442 9.63028 7.18815 9.92031 7.18815C10.2715 7.18815 10.6318 7.34191 10.7338 7.55897C10.9535 8.02474 12.1522 11.3168 12.5011 12.2303C12.7436 12.8702 11.5721 13.3133 11.3274 12.6735H11.3251ZM15.9067 12.9629C15.3267 12.9629 14.017 12.9697 13.4279 12.9697C12.8387 12.9697 12.9362 12.2823 12.9362 12.2823C12.9362 12.2823 12.9316 8.82741 12.9294 7.75568C12.9294 7.37808 13.2625 7.19042 13.5978 7.19042C13.9332 7.19042 14.264 7.37808 14.2662 7.75342C14.2662 8.52896 14.264 11.7261 14.264 11.7261C14.264 11.7261 15.3221 11.7329 15.9045 11.7329C16.4868 11.7329 16.4868 12.9651 15.9067 12.9651V12.9629ZM19.8946 12.8679L18.2655 10.6521L17.8939 10.9505C17.8939 10.9505 17.8939 12.0449 17.8939 12.6237C17.8939 13.1211 16.625 13.1211 16.625 12.6237C16.625 12.3094 16.6522 8.05866 16.6409 7.58836C16.6341 7.32834 16.9671 7.19494 17.2934 7.19494C17.597 7.19494 17.8961 7.31251 17.9029 7.55444C17.9211 8.19206 17.9029 9.34519 17.9029 9.34519C17.9029 9.34519 19.7406 7.50922 20.0034 7.2492C20.273 6.98014 21.1091 7.82125 20.8395 8.08805C20.3773 8.54704 19.2035 9.81323 19.2035 9.81323L20.9324 12.0856C21.2609 12.5197 20.2254 13.302 19.8969 12.8679H19.8946Z" fill="#4C566C"/>
</svg>
