<svg width="22" height="24" viewBox="0 0 22 24" fill="none" xmlns="http://www.w3.org/2000/svg">
<path d="M11.0574 0.108887H10.8754C5.07374 0.108887 0.367676 4.7598 0.367676 10.5009V10.7643C0.367676 14.7118 2.59598 18.1458 5.87269 19.9061C5.79515 20.2828 5.54569 20.873 5.15801 21.3864C4.71303 21.9765 4.15342 22.6667 3.89385 22.9367C3.63765 23.2101 3.87025 23.3334 4.64224 23.1367C5.41422 22.9367 7.03235 22.3199 8.24594 21.6298C8.78869 21.3197 9.10558 21.143 9.33144 21.0297C9.83711 21.103 10.3461 21.1564 10.8754 21.1564H11.0574C16.8591 21.1564 21.5652 16.5021 21.5652 10.7643V10.5009C21.5652 4.7598 16.8591 0.108887 11.0574 0.108887ZM5.43782 10.3276H7.68971V12.5347H5.43782C5.07711 12.5347 4.77371 12.4346 4.53436 12.2346C4.29838 12.0379 4.18039 11.7745 4.18039 11.4211C4.18039 11.0677 4.29838 10.8243 4.53773 10.6276C4.78382 10.4242 5.07711 10.3276 5.43782 10.3276ZM16.0096 11.3144C15.3286 12.1346 14.3274 12.548 13.0329 12.548H11.5092V10.3409H12.3452C12.9722 10.3409 13.4408 10.1775 13.7779 9.84413C14.0914 9.53074 14.2499 9.10399 14.2499 8.56722C14.2229 8.07712 14.0442 7.68371 13.7206 7.39365C13.397 7.10693 12.9823 6.96023 12.4902 6.96023H10.8585V15.1985C10.8585 15.6019 10.7439 15.9487 10.5147 16.2221C10.2888 16.4954 9.98206 16.6255 9.57753 16.6255C9.173 16.6255 8.86623 16.4921 8.62688 16.2187C8.38753 15.9387 8.27291 15.6053 8.27291 15.1952V6.3101C8.27291 5.81334 8.41113 5.43327 8.69093 5.15321C8.96736 4.87649 9.36178 4.73646 9.8607 4.73646H12.6688C13.9937 4.73646 15.0016 5.06319 15.6691 5.70665C15.9152 5.94003 16.1343 6.21342 16.3231 6.52681C16.5119 6.83687 16.6568 7.17027 16.758 7.51367C16.8557 7.86041 16.9063 8.20714 16.9063 8.55054C16.9063 9.68077 16.6029 10.6076 16.0062 11.3111L16.0096 11.3144Z" fill="#4C566C"/>
</svg>
