<svg width="41" height="41" viewBox="0 0 41 41" fill="none" xmlns="http://www.w3.org/2000/svg">
<path d="M40.9492 20.0796C40.9492 23.7435 39.9711 27.1792 38.2594 30.1371C38.195 30.249 38.1264 30.3609 38.0578 30.4729C37.899 30.7398 37.7317 31.0068 37.5558 31.2651C37.4829 31.3727 37.41 31.4803 37.3285 31.588C34.7201 35.338 30.8591 38.1365 26.3632 39.4066C26.2688 39.4324 26.1702 39.4583 26.0758 39.4841C24.4413 39.9189 22.721 40.1514 20.9492 40.1514C14.038 40.1514 7.94193 36.6339 4.35977 31.2823C4.02086 30.7872 3.70769 30.2705 3.42026 29.7453C1.84583 26.8779 0.949219 23.5842 0.949219 20.0796C0.949219 8.9932 9.90246 0.0078125 20.9492 0.0078125C31.996 0.0078125 40.9492 8.9932 40.9492 20.0796Z" fill="#EDDDD6"/>
<path d="M12.3766 17.3458C12.3766 17.3458 10.2359 5.93649 18.5543 3.84837C26.8726 1.76024 27.3745 13.6087 27.3745 13.6087C27.3745 13.6087 36.4264 15.3395 36.4865 24.1742C36.5594 35.2176 25.9288 33.3576 25.9288 33.3576L15.8558 29.2417C15.8558 29.2417 5.76575 23.7264 12.3809 17.3458H12.3766Z" fill="black"/>
<path d="M37.3281 31.588C34.7197 35.338 30.8587 38.1366 26.3628 39.4066C26.2684 39.4325 26.1698 39.4583 26.0754 39.4841C24.4409 39.919 22.7206 40.1515 20.9488 40.1515C14.0376 40.1515 7.94153 36.634 4.35938 31.2823C7.04492 27.5969 10.4126 24.807 12.7034 23.8168C16.0925 22.3529 21.4679 21.3713 26.4314 22.7964C26.4443 22.8007 26.4615 22.8007 26.4786 22.805C27.9716 23.2355 29.4216 23.8814 30.7729 24.7984C33.6944 26.7789 35.8223 29.078 37.3281 31.588Z" fill="#F7734F"/>
<path d="M17.0195 19.3305V19.4511L17.1225 21.7502L17.1954 23.5541C17.1954 23.5541 17.041 23.9718 19.1345 23.8383C21.9359 23.6445 22.8411 22.439 22.8411 22.439L22.9612 18.2111L22.1118 18.3747L17.0238 19.3305H17.0195Z" fill="#FCA397"/>
<path d="M17.0195 19.4545L17.1225 21.7535C18.4824 21.5856 20.962 20.9958 21.9659 18.8474C22.0431 18.6709 22.0946 18.5159 22.1118 18.3867L17.0324 19.4243L17.0238 19.4588L17.0195 19.4545Z" fill="black"/>
<path d="M16.1308 8.45213C16.1308 8.45213 13.5224 14.4366 14.4619 17.8035C15.4015 21.166 18.4559 20.6364 20.2792 19.9863C22.1067 19.3362 22.9519 18.2125 22.9519 18.2125C22.9519 18.2125 24.6593 18.7937 25.8004 17.2007C26.9416 15.6077 26.238 13.7779 25.2642 13.3603C24.2903 12.9427 23.132 13.6488 23.132 13.6488L24.0415 11.9094C24.0415 11.9094 20.2191 3.06606 16.1265 8.45643L16.1308 8.45213Z" fill="#FCA397"/>
<path d="M16.9418 7.56437C16.9418 7.56437 16.753 10.7504 19.9448 12.197C23.1366 13.6436 25.2687 13.3594 25.2687 13.3594L25.0628 9.20473L21.0645 4.84766L17.4909 5.98859L16.9375 7.56437H16.9418Z" fill="black"/>
<path d="M22.9219 12.7266L22.9347 14.5391L24.5435 12.9461L22.9219 12.7266Z" fill="black"/>
<path d="M38.0601 30.4746C37.9014 30.7416 37.7341 31.0085 37.5582 31.2668C37.4852 31.3744 37.4123 31.4821 37.3308 31.5897C34.7225 35.3397 30.8615 38.1382 26.3656 39.4083C26.2712 39.4342 26.1725 39.46 26.0781 39.4858L26.3527 22.7852C26.3527 22.7852 26.3827 22.7895 26.4342 22.7981C26.4471 22.8024 26.4642 22.8024 26.4814 22.8067C27.4681 22.9746 33.9331 24.2576 37.4037 29.3638C37.6397 29.7039 37.8542 30.0785 38.0601 30.4746Z" fill="#F7734F"/>
<path d="M18.5284 24.0878C17.2672 24.0878 16.3234 23.8596 16.2462 23.8424C16.1303 23.8122 16.0617 23.696 16.0874 23.584C16.1175 23.4678 16.2333 23.3989 16.3448 23.4247C16.3834 23.4334 20.1629 24.3375 22.7584 22.4388C22.8528 22.3699 22.99 22.3914 23.0587 22.4862C23.1273 22.5809 23.1059 22.7187 23.0115 22.7875C21.5872 23.8295 19.8712 24.0878 18.5241 24.0878H18.5284Z" fill="#7772D3"/>
<path d="M15.3952 10.6374C15.3051 10.6374 15.2193 10.5772 15.1893 10.4869C15.155 10.3751 15.215 10.2546 15.3309 10.2159L16.5192 9.84166C16.6307 9.80725 16.7509 9.86747 16.7895 9.98361C16.8238 10.0955 16.7637 10.2159 16.6479 10.2546L15.4596 10.6288C15.4596 10.6288 15.4167 10.6374 15.3952 10.6374Z" fill="black"/>
<path d="M23.2622 16.4363C23.2064 16.4363 23.1463 16.4147 23.1034 16.3674C23.0219 16.2813 23.0305 16.1435 23.1163 16.0617L24.9567 14.3654C25.0425 14.2836 25.1798 14.2922 25.2613 14.3783C25.3428 14.4644 25.3342 14.6022 25.2484 14.684L23.408 16.3803C23.3651 16.419 23.3136 16.4363 23.2622 16.4363Z" fill="black"/>
<path d="M25.1256 16.2131C25.0956 16.2131 25.0656 16.2088 25.0398 16.1959L23.9416 15.7141C23.8344 15.6668 23.7829 15.5378 23.8301 15.4302C23.8773 15.3227 24.006 15.2711 24.1132 15.3184L25.2114 15.8002C25.3187 15.8475 25.3702 15.9765 25.323 16.0841C25.2887 16.1658 25.2072 16.2131 25.1256 16.2131Z" fill="black"/>
<path d="M15.7581 13.6559C15.7581 13.6559 15.7281 13.6559 15.7152 13.6516C15.5994 13.6258 15.5264 13.5138 15.5479 13.3976L15.7667 12.3384L15.3377 11.839C15.2605 11.7486 15.269 11.6151 15.3591 11.5333C15.4492 11.4558 15.5822 11.4644 15.6637 11.5549L16.1656 12.1361C16.2085 12.1878 16.2257 12.2566 16.2128 12.3212L15.9726 13.4837C15.9511 13.587 15.8611 13.6559 15.7624 13.6559H15.7581Z" fill="black"/>
<path d="M19.3558 13.8393C19.3558 13.8393 19.3257 13.8393 19.3129 13.835C19.197 13.8092 19.1241 13.6973 19.1455 13.581L19.3643 12.5219L18.9353 12.0225C18.8581 11.932 18.8667 11.7986 18.9568 11.7168C19.0469 11.6393 19.1799 11.6479 19.2614 11.7383L19.7633 12.3195C19.8062 12.3712 19.8234 12.4401 19.8105 12.5047L19.5703 13.6671C19.5488 13.7705 19.4587 13.8393 19.36 13.8393H19.3558Z" fill="black"/>
<path d="M16.4703 16.2809C16.3716 16.2809 16.2815 16.212 16.2601 16.1086C15.8611 14.1927 16.7834 13.2283 16.822 13.1896C16.9036 13.1035 17.0408 13.1035 17.1266 13.1896C17.2124 13.2714 17.2124 13.4092 17.1266 13.4953C17.0923 13.534 16.3287 14.352 16.6762 16.0225C16.7019 16.1388 16.6247 16.255 16.5089 16.2766C16.496 16.2766 16.4788 16.2809 16.466 16.2809H16.4703Z" fill="black"/>
<path d="M18.4087 18.1237C18.28 18.1237 17.9754 18.0635 17.3405 17.3574C17.2675 17.2756 17.2418 17.1636 17.2675 17.0603C17.2976 16.9527 17.3834 16.8666 17.4949 16.8321C19.0264 16.3714 19.2324 16.5307 19.3224 16.5953C19.3997 16.6513 19.5155 16.7934 19.4297 17.0775C19.3139 17.4693 18.8248 18.0936 18.4473 18.1151C18.4387 18.1151 18.4258 18.1151 18.4087 18.1151V18.1237ZM17.7823 17.2024C18.1255 17.5597 18.3701 17.6889 18.4215 17.6932C18.4602 17.6932 18.6017 17.6071 18.7776 17.3832C18.9278 17.1938 19.005 17.0259 19.0264 16.9397C18.902 16.9527 18.5245 16.9828 17.7823 17.1981V17.2024Z" fill="black"/>
<path d="M11.2638 30.378C11.2424 30.4038 9.19176 32.6082 9.58215 36.5735C9.45774 36.496 9.34191 36.4099 9.22179 36.3238C9.18747 36.3022 9.15744 36.2764 9.12312 36.2506C8.87001 32.3154 10.9292 30.1154 10.9549 30.0852C11.0365 29.9991 11.1694 29.9991 11.2595 30.0766C11.3453 30.1584 11.3453 30.2962 11.2595 30.3823L11.2638 30.378Z" fill="#7772D3"/>
</svg>
