<svg width="41" height="41" viewBox="0 0 41 41" fill="none" xmlns="http://www.w3.org/2000/svg">
<path d="M40.9492 20.1656C40.9492 22.2623 40.6318 24.2858 40.0354 26.1845C39.126 29.0864 37.5816 31.7041 35.561 33.8697C35.5181 33.9213 35.4752 33.9687 35.428 34.0161C35.3679 34.0806 35.3036 34.1452 35.2435 34.2055C31.6142 37.9254 26.552 40.2374 20.9492 40.2374C20.0826 40.2374 19.2203 40.1814 18.3838 40.0781C18.3752 40.0738 18.3709 40.0738 18.3623 40.0738C16.3031 39.8025 14.3383 39.2213 12.5237 38.3731C12.3735 38.3042 12.2234 38.2311 12.0732 38.1579C9.11739 36.6897 6.5777 34.5026 4.67723 31.8289C4.51421 31.5964 4.35119 31.3639 4.19675 31.1228C3.81065 30.5373 3.45887 29.9302 3.14141 29.3059C1.73858 26.5634 0.949219 23.4592 0.949219 20.1656C0.949219 9.07914 9.90246 0.09375 20.9492 0.09375C31.996 0.09375 40.9492 9.07914 40.9492 20.1656Z" fill="#EDDDD6"/>
<path d="M35.5608 33.8691C35.5179 33.9207 35.475 33.9681 35.4278 34.0155C35.3677 34.08 35.3034 34.1446 35.2433 34.2049C31.614 37.9248 26.5518 40.2368 20.949 40.2368C20.0824 40.2368 19.2201 40.1808 18.3836 40.0775C18.375 40.0732 18.3707 40.0732 18.3621 40.0732C16.3029 39.8019 14.3381 39.2207 12.5234 38.3725C12.695 31.1007 12.6221 24.7373 12.6221 24.6167C12.6907 24.4661 16.0455 23.6007 20.5114 23.4543C27.5385 23.2304 33.4758 27.2086 35.5608 33.8691Z" fill="#507849"/>
<path d="M18.3823 40.0797C18.3823 40.0797 18.3695 40.0754 18.3609 40.0754C16.3017 39.8041 14.3369 39.2229 12.5222 38.3747C12.372 38.3059 12.2219 38.2327 12.0717 38.1595C9.11594 36.6913 6.57625 34.5042 4.67578 31.8305C8.5282 26.5306 11.6771 24.9849 12.6209 24.619C12.8139 24.5415 12.9126 24.5156 12.9126 24.5156L18.3823 40.0797Z" fill="#507849"/>
<path d="M21.0286 11.6577C21.0286 11.6577 25.6447 11.8773 25.9064 7.43409C26.1852 2.70245 21.8223 2.25038 19.969 4.16198C18.1157 6.07358 18.4589 8.01963 18.4589 8.01963C18.4589 8.01963 17.1676 6.85286 15.7605 8.28656C14.7266 9.34139 15.2586 11.0592 15.2586 11.0592C15.2586 11.0592 12.8776 10.9688 13.1007 13.0526C13.3238 15.1408 14.8081 16.1999 14.8081 16.1999L21.0243 11.6534L21.0286 11.6577Z" fill="#E56445"/>
<path d="M16.8047 19.8398L17.2852 24.7652C17.2852 24.7652 18.3062 26.0956 21.2019 26.0482C23.3555 26.0138 24.0591 25.4541 24.0591 25.4541L23.5185 22.9914L22.9866 20.589L17.6927 19.9518L16.8047 19.8441V19.8398Z" fill="#FCA397"/>
<path d="M17.6953 19.9453C17.7211 20.0788 17.7854 20.2338 17.8841 20.406C19.2226 22.7567 22.277 22.9935 23.5211 22.9849L22.9892 20.5825L17.6953 19.9453Z" fill="black"/>
<path d="M22.9868 9.24974C22.9868 9.24974 26.1657 15.1697 25.4836 18.7001C24.8015 22.2305 21.6269 21.9464 19.6964 21.434C17.7659 20.9217 16.8049 19.841 16.8049 19.841C16.8049 19.841 15.1018 20.5816 13.7976 19.0445C12.4935 17.5075 13.0597 15.5701 14.025 15.0577C14.9902 14.5454 16.2386 15.1697 16.2386 15.1697L15.1618 13.4604C15.1618 13.4604 18.3407 4.06603 22.9911 9.24543L22.9868 9.24974Z" fill="#FCA397"/>
<path d="M16.2945 17.8671C16.2602 17.8671 16.2216 17.8585 16.1872 17.8369L14.2396 16.7046C14.1366 16.6443 14.1023 16.5152 14.1624 16.4118C14.2224 16.3085 14.3511 16.2741 14.4541 16.3343L16.4017 17.4667C16.5047 17.5269 16.539 17.6561 16.479 17.7594C16.4404 17.8283 16.3674 17.8671 16.2945 17.8671Z" fill="black"/>
<path d="M14.7055 18.0393C14.6283 18.0393 14.5554 17.9963 14.5168 17.9232C14.461 17.82 14.5039 17.6866 14.6069 17.635L15.5979 17.1145C15.7008 17.0586 15.8338 17.1016 15.8853 17.2048C15.9411 17.3081 15.8982 17.4414 15.7952 17.493L14.8042 18.0135C14.7742 18.0307 14.7399 18.0393 14.7055 18.0393Z" fill="black"/>
<path d="M23.8496 11.5696C23.8067 11.5696 23.768 11.5567 23.7294 11.5309C23.1803 11.161 22.6784 11.5137 22.6569 11.5309C22.5626 11.5997 22.4253 11.5782 22.3566 11.4836C22.288 11.389 22.3094 11.2556 22.4038 11.1825C22.4339 11.161 23.1674 10.6362 23.9697 11.1782C24.0683 11.2427 24.0941 11.3761 24.0297 11.475C23.9868 11.5352 23.9225 11.5696 23.8538 11.5696H23.8496Z" fill="black"/>
<path d="M23.1906 17.176C23.1906 17.176 23.1649 17.176 23.1477 17.176C23.0319 17.1545 22.9547 17.0382 22.9761 16.922C23.3322 15.0836 22.2683 13.8867 22.2597 13.8781C22.1782 13.792 22.1868 13.6542 22.2726 13.5724C22.3584 13.4906 22.4956 13.4992 22.5771 13.5853C22.6286 13.6413 23.7955 14.9544 23.4008 17.0038C23.3794 17.1071 23.2893 17.176 23.1906 17.176Z" fill="black"/>
<path d="M23.8521 14.4772C23.7362 14.4772 23.6419 14.3867 23.6376 14.2705L23.5861 13.0951C23.5818 12.9746 23.6719 12.8755 23.792 12.8712C23.9121 12.8669 24.0108 12.9573 24.0151 13.0779L24.0666 14.2533C24.0709 14.3738 23.9808 14.4729 23.8606 14.4772C23.8606 14.4772 23.8564 14.4772 23.8521 14.4772Z" fill="black"/>
<path d="M20.6333 14.7901C20.5175 14.7901 20.4231 14.6996 20.4188 14.5834L20.3673 13.408C20.363 13.2875 20.4531 13.1884 20.5733 13.1841C20.6934 13.1755 20.792 13.2702 20.7963 13.3908L20.8478 14.5662C20.8521 14.6867 20.762 14.7858 20.6419 14.7901C20.6419 14.7901 20.6376 14.7901 20.6333 14.7901Z" fill="black"/>
<path d="M23.638 10.5895C23.638 10.5895 23.0073 9.65096 21.7847 9.7629C20.5577 9.87484 19.9314 10.8091 19.9314 10.8091C19.9314 10.8091 20.6693 12.824 19.112 14.0855C17.5547 15.347 16.2377 15.1662 16.2377 15.1662L14.9893 14.8519L13.9297 13.1685L17.0528 9.0482L21.3385 6.21094L23.8482 8.08379L23.638 10.5852V10.5895Z" fill="#E56445"/>
<path d="M22.1732 18.44C21.7528 18.44 21.0192 18.3194 20.5688 17.5574C20.5087 17.454 20.543 17.3249 20.6417 17.2603C20.7447 17.2 20.8734 17.2345 20.9377 17.3335C21.4311 18.1644 22.3792 17.9965 22.4178 17.9879C22.5336 17.9664 22.6451 18.0439 22.6666 18.1601C22.688 18.2764 22.6151 18.3883 22.4993 18.4141C22.4821 18.4141 22.3577 18.44 22.1732 18.44Z" fill="black"/>
<path d="M25.1439 16.2523C23.9899 16.2523 23.0547 15.2836 23.0547 14.091C23.0547 12.8984 23.9942 11.9297 25.1439 11.9297C26.2936 11.9297 27.2332 12.8984 27.2332 14.091C27.2332 15.2836 26.2936 16.2523 25.1439 16.2523ZM25.1439 12.3602C24.2259 12.3602 23.4837 13.1352 23.4837 14.091C23.4837 15.0468 24.2301 15.8218 25.1439 15.8218C26.0577 15.8218 26.8042 15.0468 26.8042 14.091C26.8042 13.1352 26.0577 12.3602 25.1439 12.3602Z" fill="white"/>
<path d="M20.177 16.7328C18.9887 16.7328 18.0234 15.7641 18.0234 14.5715C18.0234 13.3789 18.9887 12.4102 20.177 12.4102C21.3654 12.4102 22.3306 13.3789 22.3306 14.5715C22.3306 15.7641 21.3654 16.7328 20.177 16.7328ZM20.177 12.8407C19.2246 12.8407 18.4524 13.6157 18.4524 14.5715C18.4524 15.5273 19.2246 16.3022 20.177 16.3022C21.1294 16.3022 21.9016 15.5273 21.9016 14.5715C21.9016 13.6157 21.1294 12.8407 20.177 12.8407Z" fill="white"/>
<path d="M21.9104 14.5633C21.7989 14.5633 21.7045 14.4773 21.6959 14.3654C21.6873 14.2493 21.7731 14.1418 21.8932 14.1332L23.4119 14.0084C23.532 13.9998 23.635 14.0858 23.6436 14.2063C23.6521 14.3224 23.5663 14.43 23.4462 14.4386L21.9276 14.5633C21.9276 14.5633 21.9147 14.5633 21.9104 14.5633Z" fill="white"/>
<path d="M14.9864 15.0726C14.9349 15.0726 14.8792 15.0511 14.8406 15.0124C14.7548 14.9306 14.7505 14.793 14.832 14.7069C15.986 13.4767 18.2382 14.6123 18.3369 14.6639C18.4442 14.7198 18.4828 14.8489 18.4313 14.9521C18.3798 15.0597 18.2468 15.0984 18.1439 15.0468C18.1224 15.0382 16.0804 14.0101 15.1494 15.0037C15.1065 15.0468 15.0508 15.0726 14.995 15.0726H14.9864Z" fill="white"/>
<path d="M21.2571 26.0913C19.8714 26.0913 18.2626 25.7383 16.6968 24.5844C16.6024 24.5155 16.581 24.3778 16.6496 24.283C16.7182 24.1883 16.8555 24.1668 16.9499 24.2357C20.738 27.0299 24.8264 24.8514 24.865 24.8298C24.9679 24.7739 25.1009 24.8126 25.1567 24.9159C25.2125 25.0193 25.1738 25.1527 25.0709 25.2087C25.0451 25.2216 23.4235 26.087 21.2528 26.087L21.2571 26.0913Z" fill="white"/>
<path d="M19.1138 12.27C19.0752 12.27 19.0366 12.2614 18.998 12.2356C18.8993 12.171 18.8693 12.0418 18.9293 11.9385C19.517 10.9999 20.4308 11.0688 20.8298 11.241C20.937 11.2884 20.9885 11.4132 20.9456 11.5209C20.8984 11.6328 20.774 11.6802 20.6668 11.6371C20.6282 11.6199 19.8302 11.3099 19.294 12.1667C19.2511 12.2313 19.1824 12.2657 19.1138 12.2657V12.27Z" fill="black"/>
</svg>
