<svg width="146" height="26" viewBox="0 0 146 26" fill="none" xmlns="http://www.w3.org/2000/svg">
<path d="M12.8945 0.875L15.701 9.51229H24.7827L17.4354 14.8504L20.2418 23.4877L12.8945 18.1496L5.54722 23.4877L8.35364 14.8504L1.00632 9.51229H10.0881L12.8945 0.875Z" fill="#FF8B2E"/>
<path d="M42.8945 0.875L45.701 9.51229H54.7827L47.4354 14.8504L50.2418 23.4877L42.8945 18.1496L35.5472 23.4877L38.3536 14.8504L31.0063 9.51229H40.0881L42.8945 0.875Z" fill="#FF8B2E"/>
<path d="M72.8945 0.875L75.701 9.51229H84.7827L77.4354 14.8504L80.2418 23.4877L72.8945 18.1496L65.5472 23.4877L68.3536 14.8504L61.0063 9.51229H70.0881L72.8945 0.875Z" fill="#FF8B2E"/>
<path d="M102.895 0.875L105.701 9.51229H114.783L107.435 14.8504L110.242 23.4877L102.895 18.1496L95.5472 23.4877L98.3536 14.8504L91.0063 9.51229H100.088L102.895 0.875Z" fill="#FF8B2E"/>
<path d="M132.895 0.875L135.701 9.51229H144.783L137.435 14.8504L140.242 23.4877L132.895 18.1496L125.547 23.4877L128.354 14.8504L121.006 9.51229H130.088L132.895 0.875Z" fill="#FF8B2E"/>
</svg>
