<svg width="41" height="41" viewBox="0 0 41 41" fill="none" xmlns="http://www.w3.org/2000/svg">
<path d="M40.9492 20.0775C40.9492 25.0066 39.1776 29.5225 36.2436 33.0138C35.8747 33.4529 35.4843 33.8791 35.0811 34.2838C34.4291 34.9382 33.7299 35.5494 32.9878 36.1048C32.6275 36.3803 32.2543 36.6429 31.8725 36.8926C31.8296 36.9227 31.7868 36.9486 31.7396 36.9744C31.1991 37.3274 30.6372 37.6546 30.0581 37.9473C29.9251 38.0162 29.7921 38.0851 29.6548 38.1496C29.0329 38.451 28.3937 38.7222 27.7417 38.959C26.8752 39.2732 25.983 39.5315 25.065 39.7209C23.7353 40.0008 22.3626 40.1471 20.9514 40.1471C20.3465 40.1471 19.746 40.1213 19.154 40.0653C18.5364 40.0094 17.9272 39.9276 17.3267 39.8113C16.9921 39.7511 16.6618 39.6822 16.3358 39.6047C15.3835 39.3809 14.4613 39.0881 13.5691 38.7265C12.7755 38.4122 12.0077 38.0463 11.2656 37.633C11.1798 37.5857 11.094 37.5383 11.0125 37.4867C10.5063 37.2025 10.0173 36.8969 9.54547 36.5611C9.13796 36.2813 8.73903 35.9799 8.35297 35.6614C8.30579 35.6269 8.26289 35.5925 8.21571 35.5538C7.67093 35.0974 7.14761 34.6153 6.65002 34.1073C6.50847 33.9652 6.3712 33.8189 6.23823 33.6725C5.85646 33.2592 5.49185 32.8287 5.14868 32.3853C4.80981 31.9462 4.48809 31.4942 4.18782 31.0293C2.14171 27.878 0.949219 24.1198 0.949219 20.0775C0.949219 8.99224 9.90579 0.0078125 20.9514 0.0078125C31.9969 0.0078125 40.9492 8.99224 40.9492 20.0775Z" fill="#EDDDD6"/>
<path d="M36.2423 33.013C35.8734 33.4521 35.4831 33.8783 35.0798 34.283C34.4278 34.9373 33.7286 35.5486 32.9865 36.104C32.6262 36.3795 32.253 36.6421 31.8713 36.8918C31.8284 36.9219 31.7855 36.9477 31.7383 36.9736L31.8584 28.1484C31.8584 28.1484 33.9302 30.0857 36.2423 33.013Z" fill="#FFBF69"/>
<path d="M30.0593 37.9473C29.9263 38.0162 29.7934 38.0851 29.6561 38.1497C28.2148 38.8514 26.6749 39.3852 25.0663 39.721C23.7365 40.0008 22.3639 40.1472 20.9526 40.1472C20.3478 40.1472 19.7473 40.1213 19.1553 40.0654C18.5376 40.0094 17.9285 39.9276 17.328 39.8114C16.9934 39.7511 16.6631 39.6822 16.3371 39.6048C15.3848 39.3809 14.4625 39.0882 13.5703 38.7265L17.7397 24.5374C17.7397 24.5374 20.9912 24.0467 24.6759 24.4341C27.0824 24.6881 29.0084 32.5274 30.0593 37.9473Z" fill="#7772D3"/>
<path d="M24.6747 24.4326L18.3348 24.8329C18.3348 24.8329 17.6999 31.4453 17.3268 39.8098C16.9922 39.7496 16.6619 39.6807 16.3359 39.6032C14.5385 39.177 12.8399 38.5097 11.2656 37.6315C11.1798 37.5842 11.094 37.5368 11.0125 37.4852C10.5064 37.201 10.0174 36.8954 9.54552 36.5596C9.13801 36.2798 8.73909 35.9784 8.35303 35.6599C8.30584 35.6254 8.26295 35.591 8.21576 35.5522C7.67099 35.0959 7.14766 34.6138 6.65008 34.1058C6.50852 33.9637 6.37126 33.8174 6.23828 33.671C6.35839 30.9373 6.73158 28.9011 7.49083 28.1908C10.8624 25.0439 19.227 23.9935 19.227 23.9935L23.1391 23.9375C23.1391 23.9375 23.7568 24.1183 24.6747 24.4326Z" fill="#FFBF69"/>
<path d="M32.9878 36.1039C32.6274 36.3794 32.2543 36.642 31.8725 36.8917C31.2891 37.2748 30.6843 37.6279 30.058 37.9464C29.925 38.0153 29.7921 38.0842 29.6548 38.1488C29.0328 38.4501 28.3937 38.7213 27.7417 38.9581L27.7288 38.8031C26.6049 27.085 24.799 24.5882 24.6875 24.4375C27.1025 25.2684 31.5894 27.0377 32.413 28.9448C32.7261 29.6723 32.902 32.4533 32.9878 36.1039Z" fill="#FFBF69"/>
<path d="M20.6929 9.39322C20.6929 9.39322 16.5707 0.163415 11.8651 4.8515C7.93154 8.77331 14.0313 14.8218 17.5616 13.0955C21.0919 11.3692 20.6886 9.39322 20.6886 9.39322H20.6929Z" fill="black"/>
<path d="M26.9691 16.9247C26.9691 16.9247 28.6635 14.9918 28.1273 12.0386C27.7627 10.0368 26.8662 9.39963 26.8662 9.39963C26.8662 9.39963 28.1831 6.64447 24.1509 6.86402C20.1187 7.08788 17.7766 9.1069 17.7766 9.1069C17.7766 9.1069 15.9193 8.22438 15.1257 10.3941C14.3278 12.5638 15.1986 15.7322 15.1986 15.7322L26.9691 16.9204V16.9247Z" fill="black"/>
<path d="M18.1641 20.3828L18.3571 25.3206C18.3571 25.3206 19.3008 26.7068 22.1877 26.8273C24.341 26.9177 24.9759 25.7855 24.9759 25.7855L24.2895 21.4849L19.0477 20.5421L18.1684 20.3828H18.1641Z" fill="#F27E64"/>
<path d="M18.1602 20.082C18.1773 20.2155 18.2331 20.3748 18.3232 20.5513C19.5199 22.975 23.4363 23.8489 24.676 23.9134L24.2856 21.4854L18.1602 20.082Z" fill="black"/>
<path d="M24.9432 10.1887C24.9432 10.1887 27.7658 16.2802 26.8821 19.7586C25.9985 23.237 22.8457 22.7678 20.954 22.1436C19.0623 21.5194 18.1615 20.3829 18.1615 20.3829C18.1615 20.3829 16.4199 21.02 15.2103 19.4099C14.0006 17.7999 14.6784 15.9057 15.6692 15.4494C16.6601 14.9931 17.8698 15.6905 17.8698 15.6905L16.8961 13.9254C16.8961 13.9254 20.6108 4.74298 24.9475 10.1844L24.9432 10.1887Z" fill="#F27E64"/>
<path d="M17.8665 15.6936C17.8665 15.6936 20.5131 16.1887 22.3019 13.2182C24.0949 10.2478 23.9061 9.03814 23.9061 9.03814L25.7721 12.0516C25.7721 12.0516 26.1496 9.93788 25.2917 8.60334C24.4338 7.27312 23.563 7.56155 23.563 7.56155L17.7678 9.10272L16.3008 13.8037L17.8579 15.6893L17.8665 15.6936Z" fill="black"/>
<path d="M24.8413 18.0337C24.8413 18.0337 24.8027 18.0337 24.7812 18.0251C24.6654 17.9907 24.6011 17.8745 24.6354 17.7582C24.9614 16.6303 24.1035 15.4249 24.0949 15.412C24.0263 15.3173 24.0477 15.1796 24.1421 15.1107C24.2365 15.0418 24.3694 15.0633 24.4424 15.158C24.481 15.214 25.4332 16.5442 25.0472 17.8745C25.0215 17.9692 24.9357 18.0294 24.8413 18.0294V18.0337Z" fill="black"/>
<path d="M17.6521 18.6048C17.5963 18.6048 17.5406 18.5832 17.4977 18.5402L15.8033 16.7967C15.7218 16.7106 15.7218 16.5771 15.8033 16.491C15.8891 16.4092 16.0264 16.4092 16.1079 16.491L17.8022 18.2345C17.8837 18.3206 17.8837 18.4541 17.8022 18.5402C17.7593 18.5789 17.7079 18.6005 17.6521 18.6005V18.6048Z" fill="black"/>
<path d="M15.8816 18.1612C15.7786 18.1612 15.6886 18.0881 15.6714 17.9805C15.65 17.8644 15.7315 17.7526 15.8473 17.7311L16.9969 17.5375C17.1127 17.5203 17.2242 17.5977 17.2457 17.7139C17.2671 17.83 17.1856 17.9418 17.0698 17.9633L15.9202 18.1569C15.9202 18.1569 15.8945 18.1569 15.8859 18.1569L15.8816 18.1612Z" fill="black"/>
<path d="M25.9516 12.9755C25.9516 12.9755 25.9302 12.9755 25.9173 12.9755L24.8277 12.7992C24.7119 12.782 24.6304 12.6702 24.6519 12.554C24.669 12.4379 24.7806 12.3562 24.8964 12.3734L25.9859 12.5497C26.1017 12.5669 26.1832 12.6788 26.1661 12.7949C26.1489 12.9024 26.0588 12.9755 25.9559 12.9755H25.9516Z" fill="black"/>
<path d="M21.436 13.7578C21.3588 13.7578 21.2859 13.7148 21.2472 13.6416C21.1915 13.5383 21.2344 13.4048 21.3373 13.3531L23.1089 12.419C23.2161 12.363 23.3448 12.4061 23.4006 12.5094C23.4564 12.6127 23.4135 12.7461 23.3105 12.7978L21.5389 13.732C21.5089 13.7492 21.4746 13.7578 21.4403 13.7578H21.436Z" fill="black"/>
<path d="M25.9862 15.5014C25.8961 15.5014 25.8103 15.4454 25.7803 15.3507L25.4243 14.2443C25.4028 14.1754 25.4157 14.1022 25.4586 14.0463L25.7932 13.6244C25.8661 13.5297 26.0033 13.5168 26.0934 13.59C26.1878 13.6631 26.2007 13.8009 26.1277 13.8913L25.8661 14.2228L26.1878 15.2215C26.2221 15.3335 26.1621 15.454 26.0505 15.4927C26.0291 15.5014 26.0076 15.5014 25.9862 15.5014Z" fill="black"/>
<path d="M22.4665 15.8453C22.3764 15.8453 22.2906 15.7894 22.2606 15.6947L21.9046 14.5883C21.8831 14.5194 21.896 14.4419 21.9432 14.386L22.4065 13.8306C22.4837 13.7402 22.6167 13.7273 22.7067 13.8048C22.7968 13.8823 22.8097 14.0157 22.7325 14.1061L22.3464 14.5711L22.6638 15.5655C22.6982 15.6774 22.6381 15.798 22.5266 15.8367C22.5051 15.8453 22.4837 15.8453 22.4622 15.8453H22.4665Z" fill="black"/>
<path d="M23.9766 19.6677C23.2088 19.6677 22.3595 18.8454 22.2479 18.7335C22.1621 18.6517 22.1621 18.514 22.2479 18.4279C22.3337 18.3418 22.4667 18.3418 22.5525 18.4279C22.8356 18.7077 23.745 19.4481 24.2211 19.1769C24.3241 19.1166 24.4528 19.1554 24.5128 19.2587C24.5729 19.362 24.5343 19.4955 24.4313 19.5514C24.2898 19.6332 24.1353 19.6677 23.9766 19.6677Z" fill="black"/>
<path d="M9.54514 36.5593C9.13763 36.2795 8.73871 35.9781 8.35265 35.6596C8.30546 35.6251 8.26257 35.5907 8.21538 35.5519C7.67061 35.0956 7.14729 34.6135 6.6497 34.1055C6.11779 33.5587 5.61592 32.9862 5.14836 32.3835C4.80948 31.9444 4.48777 31.4924 4.1875 31.0274C6.88133 28.4402 9.1119 27.0195 9.1119 27.0195L9.54514 36.5593Z" fill="#FFBF69"/>
<path d="M22.6192 27.0641C22.4734 27.0641 22.3232 27.0555 22.1645 27.0426C20.2342 26.8661 18.3125 25.5531 18.231 25.4971C18.1324 25.4283 18.1066 25.2948 18.1753 25.2001C18.2439 25.1011 18.3726 25.0753 18.4755 25.1441C18.4927 25.1571 20.3844 26.4442 22.2031 26.6121C24.1077 26.7886 24.7597 25.721 24.7854 25.678C24.8455 25.5746 24.9785 25.5402 25.0771 25.6005C25.1801 25.6607 25.2144 25.7899 25.1543 25.8932C25.1243 25.9449 24.4637 27.0641 22.6149 27.0641H22.6192Z" fill="white"/>
</svg>
