<svg width="41" height="41" viewBox="0 0 41 41" fill="none" xmlns="http://www.w3.org/2000/svg">
<path d="M40.9492 20.1634C40.9492 23.7667 40.0012 27.1503 38.3412 30.0777C37.1744 32.1355 35.6516 33.9694 33.8586 35.489C31.9583 37.1034 29.7535 38.369 27.3428 39.187C25.3353 39.8628 23.1862 40.2331 20.9514 40.2331C15.0275 40.2331 9.69989 37.6458 6.04091 33.5389C5.82214 33.2978 5.61195 33.0481 5.40606 32.7941C4.8141 32.0623 4.27362 31.2874 3.7889 30.4781C1.98729 27.4603 0.949219 23.9345 0.949219 20.1634C0.949219 9.07817 9.90579 0.09375 20.9514 0.09375C31.9969 0.09375 40.9492 9.07817 40.9492 20.1634Z" fill="#EDDDD6"/>
<path d="M15.6568 15.8828C15.6568 15.8828 11.007 19.4043 10.6595 23.6791C10.1362 30.1494 17.467 27.3167 18.2735 23.1926C19.0799 19.0685 15.6526 15.8828 15.6526 15.8828H15.6568Z" fill="black"/>
<path d="M33.8588 35.4906C31.9585 37.1049 29.7537 38.3706 27.343 39.1885C25.3355 39.8644 23.1864 40.2346 20.9516 40.2346C15.0277 40.2346 9.70008 37.6473 6.0411 33.5404C5.82234 33.2993 5.61215 33.0497 5.40625 32.7957L18.0647 23.5917L18.5537 23.2344L23.5253 23.639L25.5886 23.8069L33.8588 35.4906Z" fill="#FCB35B"/>
<path d="M15.2442 15.4456C15.2442 15.4456 13.567 13.5859 14.0474 10.7015C14.3735 8.74709 15.2442 8.11426 15.2442 8.11426C15.2442 8.11426 13.9231 5.4452 17.8566 5.60879C21.7858 5.77237 24.1021 7.7096 24.1021 7.7096C24.1021 7.7096 25.8995 6.82278 26.7059 8.9279C27.5123 11.0287 26.7059 14.1326 26.7059 14.1326L15.2485 15.4542L15.2442 15.4456Z" fill="black"/>
<path d="M18.5537 23.5547L6.04107 33.5379C5.82231 33.2968 5.61212 33.0471 5.40622 32.7931C4.81426 32.0613 4.27378 31.2864 3.78906 30.477C4.17512 30.1283 4.57834 29.7796 4.99442 29.4309C10.7295 24.6309 16.4003 23.7484 18.0647 23.5891C18.3864 23.559 18.5537 23.5547 18.5537 23.5547Z" fill="#FCB35B"/>
<path d="M23.8732 18.6957L23.7788 23.8401C23.7788 23.8401 22.8866 25.2909 20.0727 25.4459C17.9751 25.5621 17.3359 24.3868 17.3359 24.3868L17.9279 19.9011L23.0196 18.8679L23.8732 18.6914V18.6957Z" fill="#F27E64"/>
<path d="M38.3402 30.0767C37.1735 32.1344 35.6507 33.9684 33.8576 35.488C31.9574 37.1024 29.7525 38.368 27.3418 39.1859L30.5761 35.2297L23.5241 23.6365L23.4727 23.5547C23.4727 23.5547 24.2834 23.5848 25.5874 23.8044C28.5558 24.2994 34.0721 25.7674 38.3402 30.0767Z" fill="#FCB35B"/>
<path d="M23.8713 18.3984C23.8541 18.5276 23.8026 18.6826 23.7211 18.8591C22.5887 21.2397 18.7839 22.1437 17.5742 22.2212L17.9217 19.8492L23.8756 18.3984H23.8713Z" fill="black"/>
<path d="M17.1274 8.85003C17.1274 8.85003 14.4593 14.8253 15.3687 18.2047C16.278 21.5841 19.3408 21.0847 21.181 20.4476C23.0169 19.8147 23.8791 18.6954 23.8791 18.6954C23.8791 18.6954 25.5821 19.2938 26.7445 17.7096C27.9027 16.1254 27.2164 14.2829 26.2427 13.8567C25.2689 13.4262 24.1022 14.1236 24.1022 14.1236L25.0287 12.3887C25.0287 12.3887 21.2839 3.49038 17.1317 8.85003H17.1274Z" fill="#F27E64"/>
<path d="M24.0952 14.1251C24.0952 14.1251 21.5257 14.646 19.737 11.7746C17.9525 8.9032 18.1155 7.72365 18.1155 7.72365L16.3354 10.6898C16.3354 10.6898 15.9365 8.6363 16.7558 7.32329C17.5751 6.01028 18.4244 6.2858 18.4244 6.2858L24.0909 7.70643L25.5836 12.2654L24.0909 14.1251H24.0952Z" fill="black"/>
<path d="M17.3284 16.5006C17.2383 16.5006 17.1525 16.4403 17.1225 16.3499C16.7279 15.0541 17.6372 13.7411 17.6758 13.6894C17.7445 13.5904 17.8774 13.5689 17.9761 13.6378C18.0748 13.7066 18.0962 13.8401 18.0276 13.9391C18.019 13.952 17.1997 15.1359 17.5343 16.225C17.5686 16.337 17.5043 16.4575 17.3927 16.4919C17.3713 16.5006 17.3498 16.5006 17.3284 16.5006Z" fill="black"/>
<path d="M24.338 16.9599C24.2865 16.9599 24.2307 16.9384 24.1921 16.8997C24.1063 16.8179 24.102 16.6801 24.1835 16.594L25.8136 14.872C25.8951 14.7859 26.0323 14.7816 26.1181 14.8634C26.2039 14.9452 26.2082 15.083 26.1267 15.1691L24.4967 16.8911C24.4538 16.9341 24.398 16.9599 24.3423 16.9599H24.338Z" fill="black"/>
<path d="M26.0594 16.5025C26.0594 16.5025 26.0379 16.5025 26.0251 16.5025L24.9012 16.3304C24.7854 16.3132 24.7039 16.2014 24.721 16.0853C24.7382 15.9691 24.8497 15.8874 24.9655 15.9046L26.0894 16.0767C26.2052 16.0939 26.2867 16.2057 26.2696 16.3218C26.2524 16.4294 26.1623 16.5025 26.0594 16.5025Z" fill="black"/>
<path d="M19.4808 18.216C18.9146 18.216 18.2754 17.8328 18.1811 17.7769C18.1167 17.7381 18.0781 17.6649 18.0781 17.5875C18.0781 17.51 18.1253 17.4411 18.1939 17.4023L20.0041 16.4553C20.0599 16.4251 20.1285 16.4208 20.1886 16.4466C20.2486 16.4725 20.2915 16.5198 20.3087 16.5844C20.3216 16.6275 20.6047 17.6004 20.0041 18.061C19.854 18.1772 19.6738 18.2203 19.4808 18.2203V18.216ZM18.7559 17.5918C19.1033 17.7467 19.5366 17.8716 19.7382 17.7166C19.9612 17.5444 19.9698 17.2086 19.9441 16.9675L18.7559 17.5918Z" fill="black"/>
<path d="M16.1747 11.582C16.0717 11.582 15.9817 11.5089 15.9645 11.4057C15.9431 11.2895 16.0203 11.1777 16.1404 11.1562L17.1999 10.9712C17.3157 10.954 17.4272 11.0272 17.4487 11.1476C17.4701 11.2637 17.3929 11.3755 17.2728 11.3971L16.2133 11.582C16.2133 11.582 16.1876 11.582 16.1747 11.582Z" fill="black"/>
<path d="M20.588 12.2868C20.5537 12.2868 20.5236 12.2782 20.4893 12.2653L18.7478 11.3785C18.6405 11.3268 18.5976 11.1934 18.6534 11.09C18.7049 10.9824 18.8378 10.9437 18.9408 10.9953L20.6823 11.8821C20.7896 11.9338 20.8325 12.0673 20.7767 12.1706C20.7381 12.2438 20.6652 12.2868 20.5837 12.2868H20.588Z" fill="black"/>
<path d="M27.3441 15.8828C27.3441 15.8828 31.0503 19.1072 30.5269 24.3636C30.0036 29.6199 24.809 28.944 23.7194 27.0283C22.0679 24.1225 23.8738 18.6939 23.8738 18.6939C23.8738 18.6939 27.0567 19.2278 27.3441 15.8828Z" fill="black"/>
<path d="M16.1761 14.0446C16.1761 14.0446 16.1332 14.0446 16.1117 14.036C16.0002 14.0015 15.9359 13.881 15.9702 13.7691L16.2662 12.7962L16.0088 12.4776C15.9359 12.3872 15.9487 12.2494 16.0388 12.1762C16.1289 12.1031 16.2662 12.116 16.3391 12.2064L16.6694 12.6153C16.7166 12.6713 16.7294 12.7445 16.708 12.8134L16.3777 13.8982C16.3477 13.9886 16.2662 14.0489 16.1718 14.0489L16.1761 14.0446Z" fill="black"/>
<path d="M19.4223 14.3393C19.4223 14.3393 19.3794 14.3393 19.358 14.3307C19.2465 14.2962 19.1821 14.1757 19.2164 14.0637L19.5124 13.0951L19.1306 12.6474C19.0534 12.557 19.062 12.4193 19.1521 12.3418C19.2422 12.2643 19.3794 12.2729 19.4566 12.3633L19.9156 12.9014C19.9628 12.9574 19.98 13.0349 19.9585 13.1037L19.6282 14.1886C19.5982 14.279 19.5167 14.3393 19.4223 14.3393Z" fill="black"/>
<path d="M20.082 25.6546C18.2547 25.6546 17.1737 24.6559 17.1609 24.6386C17.0751 24.5568 17.0708 24.4234 17.1523 24.333C17.2338 24.2469 17.3668 24.2426 17.4568 24.3244C17.5426 24.4062 19.593 26.2745 22.9174 24.4019C23.0204 24.3416 23.1534 24.3803 23.2091 24.4837C23.2692 24.587 23.2306 24.7204 23.1276 24.7764C21.9694 25.4264 20.9442 25.6503 20.082 25.6503V25.6546Z" fill="white"/>
</svg>
