<svg width="40" height="41" viewBox="0 0 40 41" fill="none" xmlns="http://www.w3.org/2000/svg">
<path d="M40 20.0718C40 21.8543 39.7683 23.585 39.3308 25.2297C37.0656 33.819 29.2707 40.1436 20 40.1436C13.7623 40.1436 8.19391 37.2805 4.52595 32.7943C1.69884 29.3284 0 24.8982 0 20.0718C0 8.98539 8.95324 0 20 0C31.0468 0 40 8.98539 40 20.0718Z" fill="#EDDDD6"/>
<path d="M39.3321 25.2281C37.067 33.8174 29.2721 40.142 20.0014 40.142C13.7637 40.142 8.1953 37.2789 4.52734 32.7927C10.3789 25.607 16.6895 24.8406 16.6895 24.8406C16.6895 24.8406 16.5394 23.7556 16.6895 23.4629C16.7968 23.2562 17.1914 23.0668 17.4102 22.9764C17.496 22.9419 17.5518 22.9204 17.5518 22.9204C17.5518 22.9204 17.8693 22.8644 18.3669 22.7869C19.3665 22.6276 21.091 22.3736 22.4295 22.2746C22.8371 22.2401 23.2103 22.2229 23.5149 22.2272C23.8452 22.2272 24.0983 22.2617 24.2356 22.3262C24.4029 22.4037 24.596 22.9204 24.596 22.9204C24.596 22.9204 27.0713 22.5372 30.4904 22.9204C31.9276 23.084 35.5012 23.747 39.3321 25.2281Z" fill="#7C6053"/>
<path d="M16.6195 13.9661C16.6195 13.9661 13.1231 12.8381 13.1017 15.4773C13.0802 18.5342 16.6881 18.2242 16.6881 18.2242L16.6195 13.9661Z" fill="#F27E64"/>
<path d="M15.1798 16.8629C15.1111 16.8629 15.0468 16.8327 15.0039 16.7724L13.704 14.947C13.6354 14.8522 13.6568 14.7145 13.7555 14.6456C13.8542 14.5767 13.9872 14.5982 14.0558 14.6972L15.3557 16.5227C15.4243 16.6175 15.4029 16.7552 15.3042 16.8241C15.2656 16.8499 15.2227 16.8629 15.1798 16.8629Z" fill="black"/>
<path d="M13.8173 16.4062C13.7101 16.4062 13.6157 16.3244 13.6028 16.2126C13.59 16.0965 13.6758 15.9889 13.7916 15.976L14.7483 15.8685C14.8684 15.8556 14.9714 15.9416 14.9842 16.0577C14.9971 16.1739 14.9113 16.2814 14.7955 16.2943L13.8388 16.4019C13.8388 16.4019 13.8216 16.4019 13.8131 16.4019L13.8173 16.4062Z" fill="black"/>
<path d="M23.3526 20.5989L23.7086 24.1422C23.7086 24.1422 22.413 25.0076 20.7099 25.197C18.4105 25.451 17.5096 24.1551 17.5096 24.1551L17.1406 19.9961L23.3483 20.5989H23.3526Z" fill="#F27E64"/>
<path d="M23.3509 20.5919C23.3509 20.5919 22.5144 23.5626 19.8674 23.4162C17.731 23.2957 16.8516 20.3594 16.8516 20.3594L23.3509 20.5919Z" fill="black"/>
<path d="M15.2753 11.169C15.2753 11.169 14.4044 17.795 16.5194 20.4945C18.7931 23.3877 21.9033 22.1693 23.0144 21.136C24.5117 19.7411 24.6833 17.9802 24.6833 17.9802C24.6833 17.9802 26.9441 18.217 27.5147 16.3312C28.1153 14.3507 26.588 12.9428 25.4726 12.9557C24.3529 12.9687 24.2457 13.1839 24.2457 13.1839L24.383 11.1173C24.383 11.1173 16.9355 4.22437 15.2796 11.1733L15.2753 11.169Z" fill="#F27E64"/>
<path d="M24.8635 16.0984C24.812 16.0984 24.7562 16.0769 24.7133 16.0381C24.6275 15.9563 24.6275 15.8185 24.709 15.7324L26.2835 14.0964C26.365 14.0103 26.5023 14.0103 26.5881 14.0921C26.6739 14.1739 26.6739 14.3116 26.5924 14.3978L25.0179 16.0338C24.975 16.0769 24.9193 16.0984 24.8635 16.0984Z" fill="black"/>
<path d="M26.4737 16.2204C26.4351 16.2204 26.3965 16.2117 26.3622 16.1902L25.2811 15.5235C25.1824 15.4633 25.1481 15.3299 25.2125 15.2267C25.2725 15.1278 25.4055 15.0933 25.5085 15.1579L26.5896 15.8246C26.6882 15.8848 26.7225 16.0182 26.6582 16.1214C26.6196 16.1859 26.5467 16.2247 26.4737 16.2247V16.2204Z" fill="black"/>
<path d="M21.3586 14.6155C21.2427 14.6155 21.1484 14.525 21.1441 14.4088L21.1055 13.3109C21.1055 13.1904 21.1956 13.0913 21.3114 13.087C21.4272 13.0741 21.5302 13.1774 21.5345 13.2937L21.5731 14.3916C21.5731 14.5121 21.483 14.6111 21.3672 14.6155C21.3672 14.6155 21.3629 14.6155 21.3586 14.6155Z" fill="black"/>
<path d="M17.1789 14.7786C17.0631 14.7786 16.9687 14.6881 16.9644 14.5719L16.9258 13.474C16.9258 13.3535 17.0159 13.2544 17.1317 13.2501C17.2518 13.2458 17.3505 13.3406 17.3548 13.4568L17.3934 14.5547C17.3934 14.6752 17.3033 14.7743 17.1875 14.7786C17.1875 14.7786 17.1832 14.7786 17.1789 14.7786Z" fill="black"/>
<path d="M19.3694 17.4944C19.275 17.4944 19.1892 17.4341 19.1634 17.3394C18.6615 15.6431 19.0819 14.1921 19.0991 14.1319C19.1334 14.0199 19.2535 13.951 19.3651 13.9855C19.4766 14.0199 19.5453 14.1405 19.5109 14.2524C19.5109 14.2653 19.112 15.6474 19.5753 17.2145C19.6096 17.3265 19.5453 17.447 19.4294 17.4815C19.408 17.4858 19.3865 17.4901 19.3694 17.4901V17.4944Z" fill="black"/>
<path d="M16.436 12.5355C16.3845 12.5355 16.3288 12.514 16.2859 12.4753C16.2001 12.3936 16.1958 12.2559 16.2773 12.1699C16.7106 11.7139 17.4999 11.6451 17.5343 11.6451C17.6544 11.6365 17.7573 11.7226 17.7659 11.843C17.7745 11.9591 17.6887 12.0667 17.5686 12.0753C17.56 12.0753 16.9122 12.1312 16.5905 12.471C16.5476 12.514 16.4918 12.5355 16.436 12.5355Z" fill="black"/>
<path d="M21.8097 12.4515C21.7711 12.4515 21.7367 12.4429 21.7024 12.4214C21.2992 12.1848 20.66 12.3138 20.6514 12.3138C20.5355 12.3353 20.424 12.2622 20.3983 12.1461C20.3768 12.0299 20.4497 11.9181 20.5656 11.8923C20.5999 11.8837 21.3721 11.7288 21.9169 12.0514C22.0199 12.1117 22.0542 12.245 21.9941 12.344C21.9555 12.4128 21.8826 12.4515 21.8097 12.4515Z" fill="black"/>
<path d="M24.7601 13.1418C24.7601 13.1418 24.2496 15.2084 23.9837 15.1482C23.7177 15.0922 23.8592 11.8933 24.5971 11.6995C25.335 11.5058 24.7601 13.1418 24.7601 13.1418Z" fill="black"/>
<path d="M19.6912 19.3643C19.5754 19.3643 19.481 19.2739 19.4767 19.1576C19.4724 19.0371 19.5625 18.938 19.6826 18.9337C19.7255 18.9337 20.7766 18.8778 21.1841 17.9736C21.2313 17.866 21.36 17.8186 21.4673 17.866C21.5745 17.9134 21.6217 18.0425 21.5745 18.1502C21.0554 19.2954 19.7556 19.36 19.6998 19.36C19.6998 19.36 19.6955 19.36 19.6912 19.36V19.3643Z" fill="black"/>
<path d="M24.4201 12.8734C24.4201 12.8734 22.1679 12.783 20.6106 11.6808C19.2978 10.7509 18.7444 9.36454 18.7444 9.36454C18.7444 9.36454 17.7749 9.28274 16.4364 10.1912C15.0979 11.0996 15.1022 13.7302 15.1022 13.7302C15.1022 13.7302 12.3652 9.39898 13.5106 7.77154C14.6518 6.14409 16.6895 7.36683 16.6895 7.36683C16.6895 7.36683 16.2133 4.4779 20.2674 5.42509C24.3257 6.37228 25.3896 9.80369 25.3896 9.80369C25.3896 9.80369 26.7539 9.62286 26.977 10.8887C27.2 12.1544 26.741 13.4676 26.741 13.4676C26.741 13.4676 26.1232 12.9251 25.2223 13.3083L24.3214 13.6872L24.4158 12.8734H24.4201Z" fill="black"/>
<path d="M17.5503 22.9216C17.5503 22.9216 18.3311 23.6621 20.1329 23.7094C21.9347 23.7568 23.5177 22.293 23.5177 22.293L24.6803 24.4328L21.806 26.1937L16.9883 25.789V23.6233L17.546 22.9259L17.5503 22.9216Z" fill="#7C6053"/>
<path d="M19.5412 26.4134C17.5936 26.4134 16.5297 24.984 16.5168 24.9668C16.4481 24.872 16.4696 24.7386 16.564 24.6654C16.6584 24.5965 16.7956 24.618 16.8643 24.7127C16.9201 24.7902 18.2457 26.5554 20.7253 25.7977C20.8411 25.7632 20.9569 25.8278 20.9913 25.9398C21.0256 26.0517 20.9612 26.1723 20.8497 26.2067C20.3778 26.3488 19.9402 26.4091 19.5412 26.4091V26.4134Z" fill="white"/>
</svg>
