<svg width="41" height="41" viewBox="0 0 41 41" fill="none" xmlns="http://www.w3.org/2000/svg">
<path d="M40.9492 20.0775C40.9492 24.0423 39.8039 27.7403 37.8221 30.8571C36.3937 33.1042 34.5321 35.0458 32.353 36.5654C31.1862 37.3791 29.9294 38.0722 28.5996 38.6275C26.2447 39.6047 23.6624 40.1471 20.9514 40.1471C20.7969 40.1471 20.6382 40.1471 20.4795 40.1428C15.6666 40.0309 11.2742 38.2142 7.88112 35.2696C7.28917 34.7573 6.73152 34.2106 6.20391 33.6338C2.93957 30.065 0.949219 25.3037 0.949219 20.0775C0.949219 8.99224 9.90579 0.0078125 20.9514 0.0078125C31.9969 0.0078125 40.9492 8.99224 40.9492 20.0775Z" fill="#EDDDD6"/>
<path d="M32.3522 36.564C31.1854 37.3776 29.9286 38.0707 28.5988 38.6261C26.2439 39.6033 23.6616 40.1457 20.9506 40.1457C20.7962 40.1457 20.6374 40.1457 20.4787 40.1414C15.6659 40.0295 11.2734 38.2128 7.88034 35.2682C7.28838 34.7559 6.73074 34.2092 6.20312 33.6323C7.6101 30.5715 10.8744 24.7986 15.979 23.4124C16.0391 23.3952 16.0991 23.3823 16.1549 23.365C22.0616 21.8669 30.0744 23.266 31.6702 24.4671C32.3265 25.0095 32.4423 30.395 32.3522 36.564Z" fill="#7C6053"/>
<path d="M17.3617 12.6703C17.3617 12.6703 14.0373 8.54614 15.4314 6.90596C16.8255 5.26577 18.9831 6.90596 18.9831 6.90596C18.9831 6.90596 19.1032 4.96873 21.2523 5.17106C23.4013 5.36909 24.6968 7.67224 24.6968 7.67224C24.6968 7.67224 26.5885 5.77376 27.8839 7.67224C29.1794 9.57072 28.2828 12.6703 28.2828 12.6703C28.2828 12.6703 29.7756 12.4464 29.3767 14.2071C28.9777 15.9679 26.6271 17.7846 26.6271 17.7846L17.3574 12.6703H17.3617Z" fill="black"/>
<path d="M24.6355 19.1645L24.6999 23.8181C24.6999 23.8181 23.8805 25.1656 21.1738 25.4239C19.1578 25.6176 18.4414 25.1656 18.4414 25.1656L18.6902 22.8064L18.939 20.5033L23.8205 19.3539L24.6398 19.1602L24.6355 19.1645Z" fill="#FCA397"/>
<path d="M23.8178 19.3598C23.8092 19.4889 23.762 19.6396 23.6891 19.8118C22.6811 22.1494 19.8543 22.6875 18.6875 22.808L18.9363 20.5049L23.8178 19.3555V19.3598Z" fill="black"/>
<path d="M17.7565 9.91432C17.7565 9.91432 15.4015 15.782 16.4053 19.0064C17.409 22.2308 20.3474 21.6367 22.0975 20.9565C23.8476 20.2763 24.6369 19.1657 24.6369 19.1657C24.6369 19.1657 26.3055 19.6779 27.3651 18.1066C28.4246 16.5353 27.6953 14.7832 26.7388 14.4044C25.7822 14.0255 24.6841 14.7402 24.6841 14.7402L25.5163 13.0311C25.5163 13.0311 21.5742 4.5848 17.7608 9.91002L17.7565 9.91432Z" fill="#FCA397"/>
<path d="M24.8849 17.2836C24.8206 17.2836 24.7562 17.2534 24.7133 17.1975C24.6447 17.1028 24.6619 16.965 24.7605 16.8961L26.5064 15.6003C26.6007 15.5315 26.7337 15.5487 26.8066 15.6434C26.8753 15.7381 26.8581 15.8759 26.7594 15.9447L25.0136 17.2405C24.975 17.2707 24.9321 17.2836 24.8849 17.2836Z" fill="black"/>
<path d="M26.7882 17.2311C26.7882 17.2311 26.7539 17.2311 26.7367 17.2268L25.3555 16.8914C25.2397 16.8656 25.1711 16.7451 25.1968 16.6333C25.2268 16.5172 25.3384 16.4483 25.4542 16.4742L26.8354 16.8096C26.9512 16.8354 27.0199 16.9559 26.9941 17.0677C26.9684 17.1666 26.8826 17.2311 26.7839 17.2311H26.7882Z" fill="black"/>
<path d="M21.5169 12.6445C21.4268 12.6445 21.3453 12.5886 21.3153 12.5025C20.9978 11.6113 20.2086 11.7405 20.1742 11.7448C20.0584 11.7663 19.9469 11.6888 19.9255 11.5683C19.904 11.4521 19.9812 11.3401 20.097 11.3186C20.5003 11.2454 21.3667 11.3617 21.7185 12.3561C21.7571 12.468 21.7013 12.5929 21.5898 12.6316C21.5641 12.6402 21.5426 12.6445 21.5169 12.6445Z" fill="black"/>
<path d="M17.1746 12.187C17.1146 12.187 17.0545 12.1612 17.0116 12.1096C16.9344 12.0193 16.9473 11.8817 17.0374 11.8042C17.2433 11.6279 17.788 11.1634 18.0368 11.4429C18.1141 11.5333 18.1055 11.6666 18.0197 11.7483C17.9639 11.7999 17.8867 11.8128 17.8181 11.7913C17.7709 11.8042 17.625 11.8687 17.3162 12.1311C17.2776 12.1655 17.2261 12.1827 17.1789 12.1827L17.1746 12.187Z" fill="black"/>
<path d="M18.0139 16.6033C17.9495 16.6033 17.8852 16.5732 17.8423 16.5172C17.0873 15.5271 18.5372 13.9601 18.5973 13.8955C18.6788 13.8094 18.8117 13.8051 18.9018 13.8869C18.9876 13.9687 18.9919 14.1021 18.9104 14.1925C18.5587 14.5714 17.7393 15.6777 18.1812 16.2589C18.2541 16.3536 18.2326 16.4871 18.1426 16.5602C18.104 16.5904 18.0568 16.6033 18.0139 16.6033Z" fill="black"/>
<path d="M17.6343 14.5297C17.6343 14.5297 17.6129 14.5297 17.6043 14.5297C17.4885 14.5125 17.407 14.4049 17.4242 14.2844L17.5786 13.1909C17.5957 13.0747 17.7073 12.9929 17.8231 13.0101C17.9389 13.0273 18.0204 13.1349 18.0032 13.2555L17.8488 14.3489C17.8317 14.4566 17.7416 14.5341 17.6386 14.5341L17.6343 14.5297Z" fill="black"/>
<path d="M20.8283 14.5327C20.6953 14.5241 20.6053 14.4208 20.6138 14.3045L20.6825 13.2025C20.6911 13.0862 20.7811 12.9958 20.9098 13.0001C21.0299 13.0088 21.12 13.1121 21.1114 13.2283L21.0428 14.3304C21.0342 14.4423 20.9399 14.5327 20.8283 14.5327Z" fill="black"/>
<path d="M17.2899 11.2366C17.2899 11.2366 17.7789 10.2938 18.937 10.2723C20.0952 10.2508 20.7816 11.0558 20.7816 11.0558C20.7816 11.0558 20.3011 13.0189 21.8883 14.0348C23.4754 15.0508 24.6893 14.7452 24.6893 14.7452L25.8261 14.3233L26.6411 12.64L23.2952 9.11429L18.9928 6.91016L16.8438 8.92057L17.2984 11.2366H17.2899Z" fill="black"/>
<path d="M19.2606 18.443C19.2091 18.443 19.1748 18.443 19.1705 18.443C19.0547 18.4344 18.9646 18.3311 18.9732 18.2106C18.9818 18.0943 19.0848 17.9996 19.2049 18.0125C19.2435 18.0125 20.1357 18.0728 20.5089 17.2549C20.5561 17.1472 20.6847 17.0999 20.792 17.1472C20.8992 17.1946 20.9464 17.3237 20.8992 17.4314C20.4789 18.3655 19.5609 18.443 19.2649 18.443H19.2606Z" fill="black"/>
<path d="M37.8241 30.8573C36.3957 33.1045 34.534 35.046 32.3549 36.5656C31.1882 37.3793 29.9313 38.0724 28.6016 38.6277L31.6729 24.4688C31.8831 24.6151 35.1603 26.9355 37.8241 30.8573Z" fill="#7C6053"/>
<path d="M20.4876 25.6643C19.0163 25.6643 17.8667 25.3372 17.811 25.3199C17.6994 25.2855 17.6308 25.1693 17.6651 25.053C17.6994 24.9368 17.8153 24.8722 17.9311 24.9067C17.9439 24.9067 19.4453 25.3328 21.1568 25.208C23.1214 25.0616 25.0002 23.6582 25.0174 23.6453C25.1118 23.5721 25.2448 23.5936 25.3177 23.6884C25.3906 23.7831 25.3692 23.9165 25.2748 23.9897C25.1933 24.05 23.2801 25.4835 21.1868 25.6385C20.9466 25.6557 20.715 25.6643 20.4876 25.6643Z" fill="#FFBF69"/>
</svg>
