<svg width="52" height="57" viewBox="0 0 52 57" fill="none" xmlns="http://www.w3.org/2000/svg">
<path d="M37.3756 42.646C45.1861 34.8075 45.1861 22.0987 37.3756 14.2602C29.5651 6.42168 16.9018 6.42168 9.09135 14.2602C1.28087 22.0987 1.28087 34.8075 9.09135 42.646C16.9018 50.4846 29.5651 50.4846 37.3756 42.646Z" fill="#EDDDD6"/>
<path d="M13.5394 46.0093C11.1628 44.6961 9.08211 42.9008 7.42188 40.761C9.33522 37.9754 14.303 33.9369 17.0057 33.0371C20.4377 31.8919 15.3798 39.8181 13.5394 46.0093Z" fill="#7772D3"/>
<path d="M27.841 20.2861C28.8535 20.1569 29.9002 20.3722 30.7325 20.9664C31.4618 21.4873 32.1611 22.357 32.4099 23.7993C33.0105 27.2609 31.775 28.221 33.7484 29.5255C35.7218 30.83 36.8372 30.0292 38.0813 33.254C39.3254 36.4787 37.412 40.7971 33.4223 39.9274C29.4326 39.0534 19.763 36.4056 19.763 36.4056L19.3125 22.0642L24.1516 20.7554L27.8324 20.2904L27.841 20.2861Z" fill="#E56445"/>
<path d="M34.1471 45.2696C32.1051 46.6086 29.8056 47.5816 27.3389 48.0983C26.009 48.3781 24.6362 48.5245 23.2247 48.5245C22.6199 48.5245 22.0193 48.4987 21.4272 48.4427C20.4663 48.3566 19.5268 48.2016 18.6087 47.982C16.8112 47.5558 15.1124 46.8884 13.5379 46.0101C11.8305 45.0672 10.2775 43.8746 8.92188 42.484C9.50961 40.8436 10.1274 39.397 10.7537 38.3422C13.7353 33.3221 18.0896 32.8485 18.0896 32.8485C22.7528 31.4751 26.734 31.2297 30.9639 33.2963C32.8644 34.2219 33.7824 39.5908 34.1471 45.2696Z" fill="#7772D3"/>
<path d="M32.0536 44.3494L31.9292 46.5279C30.4877 47.2297 28.9476 47.7636 27.3389 48.0994C26.009 48.3792 24.6362 48.5256 23.2247 48.5256C22.6199 48.5256 22.0193 48.4998 21.4272 48.4438C20.4663 48.3577 19.5268 48.2027 18.6087 47.9831C16.8112 47.5569 15.1123 46.8896 13.5379 46.0113C13.4521 45.9639 13.3663 45.9165 13.2848 45.8649C12.3453 45.3353 11.4573 44.7239 10.625 44.0394C13.302 38.4467 17.0042 33.0391 17.0042 33.0391L22.6456 31.8594L29.8271 33.0907L32.0536 44.3494Z" fill="#46467F"/>
<path d="M17.0048 33.0391C17.0048 33.0391 14.7611 40.3626 13.2854 45.8649C12.2944 45.3052 11.3634 44.6551 10.4883 43.9317L15.2545 34.4082L17.0048 33.0391Z" fill="#7772D3"/>
<path d="M15.2528 23.1902C15.2528 23.1902 13.3309 20.0644 13.481 18.7168C13.85 15.3974 18.4875 13.0983 23.1207 14.6611C27.7539 16.224 28.6977 21.9976 27.9769 24.5119C26.1151 30.9873 20.4823 28.7398 20.4823 28.7398C20.4823 28.7398 11.7264 27.1038 15.2528 23.1859V23.1902Z" fill="#E56445"/>
<path d="M16.8012 30.1014L16.8097 30.222L17.0714 32.4866L17.2688 34.2605C17.2688 34.2605 17.1444 34.6867 19.1993 34.4068C21.9535 34.0194 22.76 32.7665 22.76 32.7665L22.5841 28.5859L21.7561 28.8055L16.7969 30.1057L16.8012 30.1014Z" fill="#FCA397"/>
<path d="M16.8125 30.2204L17.0742 32.485C18.4084 32.2267 20.8151 31.4689 21.6516 29.2775C21.716 29.101 21.7546 28.9417 21.7632 28.8125L16.8211 30.1902V30.2247L16.8125 30.2204Z" fill="black"/>
<path d="M15.1733 19.4186C15.1733 19.4186 13.0154 25.5108 14.1737 28.7657C15.332 32.0206 18.3136 31.2843 20.0682 30.5137C21.8271 29.743 22.5864 28.5762 22.5864 28.5762C22.5864 28.5762 24.311 29.0283 25.3278 27.3793C26.3445 25.7261 25.5251 23.9694 24.5341 23.625C23.5431 23.2806 22.4492 24.0556 22.4492 24.0556L23.2257 22.2731C23.2257 22.2731 18.8413 13.8087 15.1733 19.4143V19.4186Z" fill="#FCA397"/>
<path d="M15.9594 26.9381C15.8736 26.9381 15.7921 26.8864 15.7621 26.8003C15.2688 25.556 16.0667 24.1912 16.101 24.1353C16.1611 24.0319 16.2941 24.0018 16.3927 24.0621C16.4957 24.1223 16.53 24.2558 16.4657 24.3548C16.4571 24.3677 15.7449 25.5948 16.1568 26.6453C16.1997 26.7572 16.1482 26.8821 16.0367 26.9252C16.0109 26.9338 15.9852 26.9424 15.9594 26.9424V26.9381Z" fill="black"/>
<path d="M22.8995 26.8325C22.8523 26.8325 22.8051 26.8152 22.7665 26.7851C22.6764 26.7119 22.6592 26.5741 22.7365 26.4837L24.2036 24.6582C24.2766 24.5678 24.4139 24.5506 24.5039 24.6238C24.594 24.697 24.6112 24.8347 24.534 24.9252L23.0668 26.7506C23.0239 26.8023 22.9638 26.8325 22.8995 26.8325Z" fill="black"/>
<path d="M24.5571 26.2469L23.4245 26.1651C23.3044 26.1565 23.2186 26.0533 23.2272 25.9328C23.2357 25.8124 23.3516 25.7264 23.4588 25.735L24.5785 25.8167C24.6986 25.8253 24.7844 25.9285 24.7758 26.049C24.7673 26.1608 24.6729 26.2469 24.5613 26.2469H24.5571Z" fill="black"/>
<path d="M17.8834 28.6117C17.3086 28.6117 16.8281 28.194 16.8024 28.1725C16.7466 28.1252 16.7209 28.0477 16.7337 27.9745C16.7466 27.9013 16.7938 27.841 16.8624 27.8109L19.1061 26.8637C19.179 26.8335 19.2648 26.8464 19.3249 26.8981C19.3849 26.9498 19.415 27.0316 19.3978 27.1091C19.3892 27.1478 19.2005 28.0089 18.4669 28.4524C18.2738 28.5686 18.0765 28.616 17.8877 28.616L17.8834 28.6117ZM17.3987 28.052C17.6303 28.1682 17.9521 28.2543 18.2395 28.0821C18.5098 27.9185 18.69 27.6731 18.8015 27.4578L17.3944 28.052H17.3987Z" fill="black"/>
<path d="M19.3116 22.3347C19.2386 22.3347 19.17 22.3003 19.1271 22.2314C18.8311 21.7497 18.1447 21.9432 18.1189 21.9518C18.0074 21.9863 17.8873 21.9217 17.853 21.8056C17.8186 21.6938 17.883 21.5733 17.9988 21.5389C18.0417 21.526 19.0284 21.2421 19.496 22.0035C19.5561 22.1024 19.5261 22.2357 19.4274 22.3003C19.3931 22.3218 19.3545 22.3304 19.3159 22.3304L19.3116 22.3347Z" fill="black"/>
<path d="M14.7268 22.0063C14.6753 22.0063 14.6195 21.9848 14.5766 21.9461C14.4908 21.8644 14.4908 21.7267 14.5723 21.6407C14.5895 21.6192 15.0528 21.1589 15.5719 21.1804C15.8293 21.1933 16.0652 21.3181 16.2497 21.5504C16.3226 21.645 16.3098 21.7783 16.2154 21.8515C16.121 21.9246 15.988 21.9117 15.9151 21.817C15.8078 21.6837 15.6877 21.6149 15.5547 21.6063C15.2201 21.5848 14.8855 21.9332 14.8812 21.9332C14.8383 21.9762 14.7825 21.9977 14.7268 21.9977V22.0063Z" fill="black"/>
<path d="M15.1772 24.5185C15.0442 24.5099 14.9541 24.4066 14.9627 24.2903L15.0313 23.2743L14.6367 22.8566C14.5552 22.7705 14.5594 22.6327 14.6452 22.5509C14.731 22.4691 14.8683 22.4734 14.9498 22.5596L15.4089 23.0461C15.4518 23.0891 15.4732 23.1494 15.4689 23.2097L15.3917 24.3205C15.3831 24.4324 15.2887 24.5228 15.1772 24.5228V24.5185Z" fill="black"/>
<path d="M18.8768 24.5213C18.7481 24.517 18.658 24.4137 18.6623 24.2975L18.7138 23.2943L18.1389 22.8078C18.0489 22.7303 18.036 22.5968 18.1132 22.5064C18.1904 22.416 18.3234 22.4031 18.4135 22.4806L19.0699 23.036C19.1214 23.079 19.1471 23.1436 19.1471 23.2125L19.0913 24.3233C19.087 24.4395 18.9927 24.5299 18.8768 24.5299V24.5213Z" fill="black"/>
<path d="M25.4168 18.3222C25.4168 18.3222 24.6146 11.2399 29.4623 11.8943C34.5974 12.5874 29.9685 20.8969 26.6866 20.5266C25.228 20.363 25.4168 18.3179 25.4168 18.3179V18.3222Z" fill="#E56445"/>
<path d="M17.1018 34.793C16.943 34.793 16.8444 34.793 16.8272 34.7887C16.7071 34.7844 16.617 34.6811 16.6256 34.5649C16.6299 34.4443 16.7285 34.3496 16.8486 34.3582C16.8787 34.3582 19.8474 34.4874 22.2626 33.0494C22.3656 32.9891 22.4943 33.0235 22.5544 33.1225C22.6144 33.2259 22.5801 33.355 22.4814 33.4196C20.3664 34.6811 17.9211 34.793 17.1018 34.793Z" fill="#F7734F"/>
<path d="M37.3585 42.66C33.7377 46.2809 28.7441 48.524 23.2272 48.524C22.6223 48.524 22.0217 48.4982 21.4297 48.4422C21.7986 46.3756 22.1976 44.9591 22.1976 44.9591L27.2684 32.0859C27.2684 32.0859 32.3134 32.1979 35.694 37.3902C36.4233 38.5139 37.0067 40.3954 37.3585 42.66Z" fill="#7772D3"/>
<path d="M27.3395 48.099C26.0096 48.3788 24.6368 48.5252 23.2254 48.5252C22.6205 48.5252 22.0199 48.4994 21.4279 48.4434C20.4669 48.3573 19.5274 48.2023 18.6094 47.9827C20.4069 40.3579 22.7621 31.8633 22.7621 31.8633L27.2666 32.0872L27.3395 48.099Z" fill="#7772D3"/>
<path d="M27.8406 20.4989C27.7333 20.4989 27.6389 20.4171 27.6261 20.3052C27.3215 17.2311 25.2751 16.1375 25.2537 16.1246C25.1464 16.0686 25.1078 15.9395 25.1593 15.8361C25.2151 15.7285 25.3438 15.6898 25.4467 15.7414C25.5411 15.7888 27.7247 16.9555 28.0508 20.2621C28.0636 20.3783 27.9778 20.486 27.8577 20.4989C27.8491 20.4989 27.8449 20.4989 27.8363 20.4989H27.8406Z" fill="white"/>
<path d="M18.1848 16.9102C18.1848 16.9102 17.4512 17.8573 17.3526 19.3815L17.2539 20.9056L23.5473 22.7483L23.676 19.6915L18.1891 16.9102H18.1848Z" fill="#E56445"/>
<path d="M17.6594 17.9169C17.6594 17.9169 17.106 18.3991 16.8572 19.0493C16.6084 19.6994 16.3467 20.9824 16.3467 20.9824L14.5234 20.7757L14.7294 17.5854L17.1875 16.0742L18.6719 16.2421L18.4445 18.3001L17.6594 17.9169Z" fill="#E56445"/>
</svg>
