<svg width="41" height="41" viewBox="0 0 41 41" fill="none" xmlns="http://www.w3.org/2000/svg">
<path d="M40.9492 20.1656C40.9492 23.9974 39.8767 27.5795 38.0234 30.6277C34.5099 36.3926 28.1779 40.2374 20.9492 40.2374C14.9218 40.2374 9.51636 37.5594 5.85269 33.3272C2.79821 29.8054 0.949219 25.1986 0.949219 20.1656C0.949219 9.07914 9.90246 0.09375 20.9492 0.09375C31.996 0.09375 40.9492 9.07914 40.9492 20.1656Z" fill="#EDDDD6"/>
<path d="M22.9375 14.6107C22.9375 14.6107 26.1636 13.078 26.5154 15.6182C26.9272 18.5588 23.4094 18.7224 23.4094 18.7224L22.9375 14.6107Z" fill="#F27E64"/>
<path d="M24.6665 17.2254C24.6322 17.2254 24.5978 17.2168 24.5678 17.1996C24.4648 17.1436 24.4219 17.0144 24.4777 16.9068L25.4987 14.9823C25.5545 14.879 25.6832 14.8359 25.7905 14.8919C25.8934 14.9478 25.9363 15.077 25.8806 15.1846L24.8595 17.1092C24.8209 17.1823 24.748 17.2254 24.6708 17.2254H24.6665Z" fill="black"/>
<path d="M24.9801 16.6313C24.8643 16.6313 24.7699 16.5367 24.7656 16.4206C24.7656 16.3001 24.8557 16.2055 24.9758 16.2012L25.9111 16.1797C26.0269 16.1797 26.1256 16.27 26.1298 16.3905C26.1298 16.5109 26.0398 16.6055 25.9196 16.6098L24.9844 16.6313H24.9801Z" fill="black"/>
<path d="M38.0223 30.6289C36.7568 32.7041 35.1266 34.5296 33.2218 36.0107C33.0974 36.114 32.973 36.2087 32.8443 36.2991C29.5195 38.7791 25.4054 40.2386 20.9481 40.2386C18.2754 40.2386 15.7229 39.7133 13.3934 38.7575C13.2604 38.7016 13.1274 38.6456 12.9944 38.5853C10.2317 37.3841 7.79493 35.5758 5.85156 33.3284C6.65379 30.827 8.151 28.4504 10.8194 26.9435C17.6319 23.0988 27.8335 23.0988 32.3724 25.2601C35.1609 26.5861 37.0013 28.9627 38.0223 30.6289Z" fill="#7772D3"/>
<path d="M24.261 11.6934C24.261 11.6934 26.3931 8.24473 25.9598 6.77228C25.5308 5.29983 23.6089 6.74214 23.6089 6.74214C23.6089 6.74214 23.1713 3.56906 20.8204 4.18473C17.6887 5.00276 14.5741 10.5438 14.5741 10.5438C14.5741 10.5438 12.9783 10.1434 12.4377 11.547C11.8114 13.183 12.3605 15.0128 13.3686 16.6446C14.3768 18.2763 17.1009 16.9287 17.1009 16.9287L24.261 11.6891V11.6934Z" fill="black"/>
<path d="M17.6445 21.6776L17.7604 25.4577C17.7604 25.4577 19.1546 26.1896 20.862 26.1509C23.1658 26.0992 23.9079 25.0831 23.9079 25.0831L23.7063 20.1836L17.6488 21.6819L17.6445 21.6776Z" fill="#F27E64"/>
<path d="M17.6449 21.5915C17.6449 21.5915 19.1035 24.4288 21.699 23.9379C23.7925 23.5418 23.7067 20.5625 23.7067 20.5625L17.6406 21.5915H17.6449Z" fill="black"/>
<path d="M24.2596 11.6922C24.2596 11.6922 25.4136 18.2623 24.2467 20.8283C22.9383 23.7086 19.5878 23.3254 18.3866 22.4687C16.7649 21.3148 16.0657 19.4506 16.0657 19.4506C16.0657 19.4506 13.9207 19.9672 13.1313 18.2235C12.3033 16.3937 13.5903 14.8395 14.6714 14.7103C15.7482 14.5812 15.8855 14.7706 15.8855 14.7706L15.4908 12.7987C15.4908 12.7987 21.7842 5.20828 24.2639 11.6879L24.2596 11.6922Z" fill="#F27E64"/>
<path d="M15.884 14.775C15.884 14.775 17.2869 14.8267 18.8699 13.5609C20.7274 12.0799 20.4357 9.63008 20.4357 9.63008C20.4357 9.63008 23.8162 11.5761 24.6571 14.1378C25.4979 16.6996 25.4851 8.00263 21.7442 8.31693C18.0033 8.63122 13.014 11.081 15.884 14.7707V14.775Z" fill="black"/>
<path d="M15.6301 17.6786C15.5829 17.6786 15.5357 17.6614 15.4971 17.6312L13.7726 16.2578C13.6782 16.1846 13.6653 16.0469 13.7382 15.9564C13.8112 15.8617 13.9484 15.8488 14.0385 15.922L15.7631 17.2954C15.8575 17.3686 15.8704 17.5064 15.7974 17.5968C15.7545 17.6485 15.6902 17.6786 15.6301 17.6786Z" fill="black"/>
<path d="M14.0973 17.9989C14.0329 17.9989 13.9729 17.973 13.93 17.9214C13.8571 17.831 13.8699 17.6932 13.96 17.62L14.9167 16.8364C15.0068 16.7632 15.1441 16.7761 15.217 16.8665C15.2899 16.957 15.277 17.0947 15.187 17.1679L14.2303 17.9515C14.1917 17.9859 14.1445 17.9989 14.093 17.9989H14.0973Z" fill="black"/>
<path d="M19.2094 15.7524C19.1021 15.7524 19.0077 15.6706 18.9949 15.5587L18.8919 14.4952C18.879 14.379 18.9648 14.2713 19.085 14.2584C19.2008 14.2498 19.308 14.3316 19.3209 14.4522L19.4239 15.5156C19.4367 15.6319 19.3509 15.7395 19.2308 15.7524C19.2222 15.7524 19.2179 15.7524 19.2094 15.7524Z" fill="black"/>
<path d="M23.3266 15.5962C23.2193 15.5962 23.1249 15.5144 23.1121 15.4024L23.0091 14.339C22.9962 14.2227 23.082 14.1151 23.2021 14.1022C23.3223 14.0936 23.4252 14.1754 23.4381 14.2959L23.5411 15.3594C23.5539 15.4756 23.4681 15.5832 23.348 15.5962C23.3394 15.5962 23.3351 15.5962 23.3266 15.5962Z" fill="black"/>
<path d="M21.8155 18.2231C21.8155 18.2231 21.794 18.2231 21.7812 18.2231C21.6653 18.2059 21.5838 18.0939 21.601 17.9777C21.8455 16.4105 21.2921 15.1318 21.2878 15.1189C21.2406 15.0113 21.2878 14.8821 21.3951 14.8347C21.5023 14.7874 21.631 14.8347 21.6782 14.9424C21.7039 14.9984 22.2917 16.3459 22.0257 18.0423C22.0085 18.1499 21.9184 18.2231 21.8155 18.2231Z" fill="black"/>
<path d="M23.6871 13.3769C23.6399 13.3769 23.5927 13.3597 23.5541 13.3296C23.2623 13.093 22.7433 13.0672 22.5674 13.0758C22.4515 13.0801 22.3486 12.9897 22.34 12.8736C22.3357 12.7531 22.4258 12.6542 22.5416 12.6456C22.5717 12.6456 23.3439 12.6069 23.82 12.994C23.9101 13.0672 23.9273 13.2048 23.8544 13.2951C23.8115 13.3468 23.7514 13.3769 23.6871 13.3769Z" fill="black"/>
<path d="M18.8574 13.5363C18.793 13.5363 18.7287 13.5062 18.6858 13.4546C18.6129 13.36 18.63 13.2266 18.7244 13.1535C19.2092 12.775 19.9771 12.8266 20.0114 12.8266C20.1272 12.8352 20.2173 12.9384 20.2087 13.0546C20.2002 13.175 20.1058 13.261 19.9814 13.2524C19.9728 13.2524 19.3422 13.2137 18.9904 13.489C18.9518 13.5191 18.9046 13.532 18.8574 13.532V13.5363Z" fill="black"/>
<path d="M15.3784 14.8067C15.3784 14.8067 16.1334 16.7312 16.3823 16.6408C16.6311 16.5504 16.0862 13.4935 15.3527 13.3988C14.6148 13.3041 15.3784 14.8067 15.3784 14.8067Z" fill="black"/>
<path d="M20.8775 26.3576C18.8869 26.3576 17.0336 25.4836 16.9993 25.4707C16.892 25.419 16.8491 25.2899 16.9006 25.1822C16.9521 25.0746 17.0808 25.0272 17.188 25.0789C17.2395 25.1047 22.5377 27.5976 24.5325 23.9164C24.5883 23.8131 24.7213 23.7744 24.8243 23.8303C24.9272 23.8863 24.9658 24.0198 24.9101 24.1231C23.9705 25.8582 22.3832 26.3576 20.8817 26.3576H20.8775Z" fill="#FFBF69"/>
<path d="M21.0372 19.881C20.4065 19.881 20.0633 19.4939 19.9604 19.2401C19.9175 19.1282 19.9689 19.0035 20.0805 18.9605C20.1877 18.9175 20.3121 18.9691 20.3593 19.0766C20.3851 19.1325 20.621 19.6186 21.4275 19.3949C21.5391 19.3648 21.6592 19.4293 21.6935 19.5455C21.7236 19.6616 21.6592 19.7778 21.5434 19.8122C21.3589 19.8638 21.1873 19.8853 21.0372 19.8853V19.881Z" fill="black"/>
<path d="M13.8798 36.2029L13.3951 38.756C13.2621 38.7001 13.1291 38.6441 12.9961 38.5838L13.4637 36.1211C13.4852 36.0049 13.5967 35.9274 13.7168 35.9489C13.8326 35.9747 13.9056 36.0824 13.8798 36.2029Z" fill="#FFBF69"/>
</svg>
