<svg width="22" height="30" viewBox="0 0 22 30" fill="none" xmlns="http://www.w3.org/2000/svg">
<path d="M11 0C17.0752 0 22 4.35007 22 11.8073C22 17.4811 15.6323 25.6735 12.5866 29.2672C11.7105 30.264 10.2397 30.2243 9.41406 29.2672C6.369 25.6753 0 17.4823 0 11.8073C0 4.35007 4.92476 0 11 0ZM11 6.83582C9.97034 6.83582 8.98284 7.22865 8.25476 7.92791C7.52668 8.62716 7.11765 9.57555 7.11765 10.5644C7.11765 11.5533 7.52668 12.5017 8.25476 13.201C8.98284 13.9002 9.97034 14.2931 11 14.2931C12.0297 14.2931 13.0172 13.9002 13.7452 13.201C14.4733 12.5017 14.8824 11.5533 14.8824 10.5644C14.8824 9.57555 14.4733 8.62716 13.7452 7.92791C13.0172 7.22865 12.0297 6.83582 11 6.83582Z" fill="white"/>
</svg>
