<svg width="41" height="41" viewBox="0 0 41 41" fill="none" xmlns="http://www.w3.org/2000/svg">
<circle cx="20.962" cy="20.7449" r="20" fill="#F5F5F5"/>
<path fill-rule="evenodd" clip-rule="evenodd" d="M28.5977 13.1091C28.6585 13.1697 28.7067 13.2416 28.7395 13.3209C28.7724 13.4001 28.7893 13.485 28.7893 13.5708C28.7893 13.6566 28.7724 13.7415 28.7395 13.8208C28.7067 13.9 28.6585 13.972 28.5977 14.0326L14.2499 28.3804C14.1274 28.5028 13.9614 28.5716 13.7882 28.5716C13.615 28.5716 13.4489 28.5028 13.3264 28.3804C13.204 28.2579 13.1352 28.0918 13.1352 27.9186C13.1352 27.7455 13.204 27.5794 13.3264 27.4569L27.6743 13.1091C27.7348 13.0483 27.8068 13.0002 27.886 12.9673C27.9653 12.9344 28.0502 12.9175 28.136 12.9175C28.2218 12.9175 28.3067 12.9344 28.3859 12.9673C28.4652 13.0002 28.5372 13.0483 28.5977 13.1091Z" fill="#8E8E8E"/>
<path fill-rule="evenodd" clip-rule="evenodd" d="M13.3264 13.1091C13.2657 13.1697 13.2175 13.2416 13.1846 13.3209C13.1518 13.4001 13.1348 13.485 13.1348 13.5708C13.1348 13.6566 13.1518 13.7415 13.1846 13.8208C13.2175 13.9 13.2657 13.972 13.3264 14.0326L27.6743 28.3804C27.7967 28.5028 27.9628 28.5716 28.136 28.5716C28.3092 28.5716 28.4753 28.5028 28.5977 28.3804C28.7202 28.2579 28.789 28.0918 28.789 27.9186C28.789 27.7455 28.7202 27.5794 28.5977 27.4569L14.2499 13.1091C14.1893 13.0483 14.1174 13.0002 14.0381 12.9673C13.9589 12.9344 13.8739 12.9175 13.7882 12.9175C13.7024 12.9175 13.6174 12.9344 13.5382 12.9673C13.459 13.0002 13.387 13.0483 13.3264 13.1091Z" fill="#8E8E8E"/>
</svg>
