<svg width="300" height="283" viewBox="0 0 300 283" fill="none" xmlns="http://www.w3.org/2000/svg">
<g filter="url(#filter0_b_1131_1989)">
<rect y="0.988281" width="300" height="282" rx="50" fill="white"/>
</g>
<g clip-path="url(#clip0_1131_1989)">
<path d="M165.446 42.3574C166.441 44.4804 164.592 47.7689 166.619 48.823C168.661 49.8919 171.616 49.209 174.177 49.3129C176.003 49.3871 177.822 49.4985 179.649 49.595L179.589 49.491C179.866 54.0686 177.696 56.355 173.078 56.35C169.247 56.35 165.416 56.4985 161.593 56.298C159.017 56.1644 158.735 57.4709 158.935 59.4454C159.106 61.1008 158.156 63.6618 161.355 63.105C165.513 62.3776 165.951 64.5006 165.832 67.8781C165.728 70.8919 164.377 74.9375 166.53 76.6893C168.342 78.1665 172.202 77.1422 175.157 77.1867C176.634 77.209 178.119 77.157 179.604 77.1422L179.508 77.105L179.916 77.8399C179.916 82.0563 179.908 86.2726 179.901 90.4889C179.842 94.5271 179.879 98.5727 179.693 102.603C179.589 104.86 180.681 105.194 182.589 105.209C186.249 105.246 189.931 104.793 193.576 105.484C193.651 107.057 193.814 108.646 193.762 110.22C193.703 112.105 194.935 112.209 196.175 111.986C197.652 111.719 199.783 113.122 200.488 110.717C201.706 106.56 200.585 105.127 196.346 105.224C195.388 105.246 194.43 105.461 193.472 105.595C194.237 103.264 192.485 100.094 194.393 98.6247C196.308 97.1475 199.367 98.2683 201.921 98.1347C203.146 98.0753 204.379 98.1867 205.604 98.1125C207.133 98.0234 207.697 98.595 207.816 100.198C208.18 105.142 208.261 105.15 213.362 105.12C214.706 105.112 216.049 104.994 217.386 104.919C220.355 105.202 221.848 107.547 221.863 111.957L221.959 111.853C218.143 111.919 214.327 112.09 210.518 111.994C208.44 111.942 207.719 112.58 207.779 114.703C207.913 119.38 207.593 124.079 207.905 128.74C208.135 132.162 207.014 133.439 203.666 132.882C202.82 132.741 201.943 132.801 201.09 132.764C200.991 128.305 198.704 126.075 194.23 126.075C192.997 126.075 191.735 125.927 190.525 126.105C187.57 126.543 186.464 125.34 186.939 122.468C187.347 119.988 186.471 118.704 183.776 119.135C180.792 119.617 179.307 118.511 179.856 115.342C180.384 112.313 178.75 112.001 176.233 111.986C173.761 111.971 172.455 112.491 172.907 115.215C173.368 117.977 172.447 119.068 169.388 119.016C166.575 118.971 165.52 118.147 165.981 115.431C166.471 112.55 165.119 111.957 162.447 111.964C159.811 111.979 158.386 112.476 158.905 115.401C159.418 118.303 158.2 119.513 155.297 119.038C152.647 118.6 151.86 119.788 152.068 122.334C152.276 124.91 152.283 127.53 152.068 130.106C151.867 132.526 152.869 132.971 155.037 132.927C161.088 132.793 167.146 132.875 173.197 132.875C177.914 132.875 180.012 135.334 179.493 140.253L179.619 140.142C175.189 140.009 172.94 142.144 172.87 146.548C172.87 146.667 172.855 146.793 172.848 146.912L172.945 146.816C169.062 146.875 164.57 145.65 165.483 152.576C165.765 154.729 162.469 153.437 160.836 153.764C159.574 154.016 158.534 153.519 158.824 151.982C159.692 147.35 157.45 146.185 153.352 146.845C152.832 146.927 152.231 146.474 151.667 146.274C152.016 144.47 151.986 142.666 151.689 140.855C151.927 140.491 151.748 140.38 151.392 140.38C149.157 139.756 146.886 140.157 144.629 140.12L144.725 140.216C144.755 138.242 144.807 136.275 144.807 134.3C144.817 128.817 142.087 126.073 136.618 126.068C132.921 126.068 131.072 127.971 131.072 131.776C131.072 137.344 128.345 140.125 122.891 140.12C118.743 140.12 116.82 142.26 117.122 146.541C116.87 146.593 116.669 146.726 116.528 146.942L110.559 147.053C110.106 146.949 109.92 147.12 110.032 147.58C109.98 149.837 109.92 152.086 109.868 154.343C107.597 153.541 105.251 154.038 102.942 154.016C96.3713 153.957 96.3713 154.016 95.7699 160.207C95.5175 160.392 95.2651 160.585 95.0052 160.771C90.9863 160.984 89.0139 163.151 89.0881 167.274C89.0881 167.4 89.103 167.519 89.1104 167.645C82.1539 167.637 75.19 167.63 68.2336 167.623L68.3301 167.66C68.0381 163.171 65.5287 160.922 60.8019 160.912L60.9059 161.001C61.0395 156.344 63.487 154.016 68.2484 154.016C69.1096 154.016 69.9708 154.016 70.8246 154.016C74.6332 154.009 76.2369 151.618 74.856 147.959C74.1729 146.14 72.5248 146.882 71.3963 146.986C68.7681 147.231 67.7658 146.266 68.2113 143.713C68.7087 140.84 67.5802 139.793 64.6402 140.06C61.8413 140.32 58.9904 140.001 56.1692 140.157C54.4394 140.253 54.0682 139.378 54.0088 138.004C54.0088 134.278 54.0088 130.559 54.0088 126.832C54.083 126.573 54.1647 126.313 54.2389 126.06L54.135 126.157C58.6489 125.989 60.9083 123.643 60.9133 119.12C60.9182 114.325 63.2866 111.996 68.0183 112.135C68.048 113.233 68.241 114.362 68.0777 115.438C67.6174 118.452 68.9611 119.253 71.7675 119.023C74.9376 118.771 78.13 118.853 81.315 118.793C81.5303 118.986 81.7382 119.172 81.9535 119.365C82.0203 123.589 82.0945 127.805 82.1614 132.029C80.8696 133.491 79.1323 132.912 77.6326 132.823C74.4996 132.63 75.1455 134.746 75.0935 136.505C75.0341 138.383 74.752 140.194 77.7514 140.075C82.7998 139.875 87.878 139.853 92.9265 140.083C95.7328 140.209 95.911 138.813 95.7699 136.728C95.6511 134.879 96.4455 132.4 93.0749 132.957C89.9271 133.476 88.4645 132.34 88.9397 129.067C88.9916 128.109 89.0362 127.159 89.0881 126.202C89.3257 126.15 89.5559 126.068 89.7712 125.957C90.766 125.957 91.7609 125.957 92.7557 125.957C95.2057 126.001 97.6705 125.867 100.098 126.135C103.254 126.484 102.949 124.531 102.994 122.49C103.038 120.419 102.912 118.741 100.135 119.164C99.1702 119.313 98.1902 119.313 97.2176 119.387C95.7477 119.32 94.248 119.075 92.8002 119.231C90.0087 119.528 88.9545 118.704 88.9842 115.646C89.0139 112.714 89.8306 111.585 92.7112 112.06C95.0424 112.446 95.807 111.6 95.8813 109.106C95.9704 106.115 95.2725 104.778 92.0801 105.239C90.3874 105.476 88.6204 105.424 86.9129 105.253C83.6239 104.919 81.3744 105.38 82.1465 109.589C82.7256 112.729 80.2385 111.979 78.5384 112.038C76.6823 112.112 74.7966 112.446 75.0341 109.373C75.2717 106.322 74.9822 103.227 74.9228 100.154C75.6875 96.1528 79.0284 98.9884 80.8844 97.9046C87.4103 97.964 93.9287 97.9714 100.455 98.105C102.318 98.1422 103.135 97.6003 103.038 95.6034C102.905 92.7752 103.216 89.9248 102.957 87.1188C102.637 83.7784 104.835 84.4836 106.713 84.3277C108.94 84.1422 110.024 84.6395 109.943 87.2673C109.772 92.7975 109.965 98.3352 110.01 103.873C109.972 104.378 109.928 104.875 109.891 105.38C108.191 105.328 106.498 105.261 104.798 105.231C104.063 105.216 103.484 105.313 103.179 106.256C101.962 109.989 103.409 112.06 107.337 112.06C108.191 112.06 109.037 112.046 109.891 112.031C109.891 113.746 109.891 115.46 109.868 117.175C109.854 118.162 110.173 118.66 111.257 118.905C115.585 119.884 117.063 118.838 117.107 114.562C117.115 113.708 117.181 112.847 117.226 111.994C119.282 111.957 121.673 112.558 123.291 111.697C124.836 110.873 123.729 108.349 123.9 106.582C124.012 105.409 124.65 105.209 125.6 105.239C127.056 105.283 128.511 105.328 129.958 105.372H130.27C131.532 103.873 130.812 102.076 131.02 100.414C131.139 99.5006 130.857 98.5133 132.215 98.0902C135.853 96.9545 138.147 98.3277 137.984 101.987C137.873 104.511 138.585 105.706 141.206 105.231C144.376 104.667 145.386 106.115 144.903 109.069C144.747 110.027 144.718 110.999 144.636 111.971C143.285 112.001 141.926 112.009 140.568 112.075C139.743 112.112 138.437 111.749 138.288 112.714C138.014 114.51 137.59 116.737 138.377 118.133C139.343 119.832 141.8 118.971 143.522 118.771C145.854 118.504 144.51 116.41 144.725 115.149C144.911 114.094 144.606 112.959 144.525 111.853C145.26 111.912 145.995 112.009 146.737 112.031C151.726 112.164 151.852 112.164 152.06 107.28C152.142 105.328 152.996 105.083 154.57 105.12C157.532 105.187 160.494 105.046 163.449 105.15C166.137 105.246 165.713 103.361 165.543 101.883C165.372 100.473 166.723 97.6968 163.701 98.1422C158.579 98.8993 158.415 96.0859 158.801 92.4041C158.942 91.0605 158.653 89.665 158.861 88.3436C159.373 85.0775 158.141 84.2461 154.874 84.2387C150.969 84.2387 151.912 86.7254 152.023 88.6777C152.201 91.8251 150.078 91.1867 148.341 91.1718C146.626 91.1644 144.473 91.8845 144.695 88.6925C144.911 85.6268 144.762 82.5313 144.725 79.4433C144.718 78.649 144.985 77.7583 143.879 77.2609C140.723 75.858 137.999 77.6024 137.991 81.0987C137.991 81.841 137.991 82.5759 137.991 83.3182C137.991 88.4104 135.499 91.0704 130.515 91.298C131.889 85.0626 131.428 84.3352 126.759 84.2683C124.464 84.2387 123.626 84.9364 123.908 87.2079C124.078 88.5441 123.974 89.9099 123.997 91.2683C122.779 91.2461 121.539 91.0753 120.344 91.2238C117.827 91.5356 116.855 90.6819 117.048 88.0393C117.322 84.402 117.248 80.7424 117.322 77.0902L117.218 77.1273C121.042 77.1422 124.865 77.157 128.689 77.1793C129.825 77.1793 131.035 77.2758 130.946 75.5759C130.73 71.4338 131.607 67.2471 130.404 63.1496L130.3 63.2461C135.163 63.1867 140.018 63.1347 144.881 63.0753C144.802 67.9746 147.16 70.3772 151.956 70.2832C152.001 71.508 152.201 72.7625 152.038 73.9576C151.689 76.5706 152.721 77.157 155.267 77.2461C158.319 77.3574 158.861 76.2514 158.868 73.5048C158.868 70.8622 158.029 69.9937 155.512 70.3203C154.302 70.4762 153.062 70.3871 151.83 70.402C152.196 65.5027 149.969 63.0927 145.148 63.1718C145.03 63.1718 144.903 63.1718 144.785 63.1718C144.755 60.8855 144.725 58.5992 144.695 56.3129L144.666 56.4168C145.765 56.3945 146.886 56.2312 147.969 56.3871C150.984 56.8102 151.979 55.7042 151.889 52.5939C151.815 49.8622 151.073 48.7858 148.318 49.1199C147.131 49.2609 145.891 48.9788 144.673 48.8898L144.71 48.9863C144.948 44.5769 147.304 42.3698 151.778 42.3649C156.344 42.3649 160.91 42.3352 165.476 42.3203L165.446 42.3574ZM95.9555 147.595C95.8368 147.372 95.7254 147.15 95.6066 146.927C94.144 146.934 92.6815 146.971 91.2189 146.942C89.9939 146.919 88.8951 147.098 89.1178 148.656C89.3554 150.364 88.1007 152.509 89.9642 153.712C92.6146 155.411 95.7922 153.571 95.8442 150.52C95.859 149.547 95.9184 148.575 95.963 147.602L95.9555 147.595ZM113.298 126.202C110.188 125.214 110.143 127.159 110.084 129.572C110.024 131.992 110.559 132.994 113.276 132.986C115.941 132.986 116.944 132.392 116.788 129.549C116.662 127.129 116.565 125.326 113.298 126.194V126.202ZM166.181 87.8314C165.505 90.6819 166.842 91.2238 169.5 91.2832C172.365 91.35 172.885 90.3553 172.937 87.7275C172.989 84.9142 172.091 84.2758 169.403 84.2461C166.575 84.2164 165.595 85.1294 166.181 87.824V87.8314ZM130.76 122.772C131.295 120.115 130.419 119.075 127.523 119.142C124.917 119.209 123.841 119.684 123.923 122.586C123.997 125.185 124.45 126.283 127.352 126.179C129.929 126.09 131.443 125.704 130.753 122.765L130.76 122.772Z" fill="black"/>
<path d="M165.87 237.313C164.244 237.461 162.625 237.602 160.999 237.751C159.188 237.721 158.883 236.652 158.891 235.064C158.95 225.206 159.002 215.348 158.883 205.49C158.846 202.439 160.791 203.018 162.573 202.899C164.563 202.766 165.847 203.055 165.736 205.609C165.587 209.038 165.832 212.49 165.914 215.934C165.669 216.283 165.877 216.35 166.181 216.35C167.176 216.394 168.171 216.432 169.166 216.476C172.046 216.521 174.927 216.558 177.808 216.602C178.832 216.617 179.812 216.602 179.5 215.103C178.981 211.094 180.436 209.023 184.749 209.736C188.706 209.187 186.034 206.358 186.509 204.614C186.457 201.741 184.207 202.914 182.953 202.936C180.688 202.966 179.849 202.224 180.005 199.937C180.176 197.362 180.206 194.749 180.005 192.18C179.797 189.56 180.77 188.513 183.331 188.944C186.479 189.478 187.006 187.86 186.887 185.143C186.702 180.712 187.08 176.25 186.761 171.833C186.516 168.404 187.808 167.432 190.941 167.87C192.151 168.04 193.406 167.892 194.638 167.892C200.036 167.892 200.08 167.892 200.8 162.681C200.971 161.471 201.328 160.914 202.59 160.951C203.822 160.988 205.054 160.884 206.279 160.84C206.524 160.84 206.769 160.84 207.007 160.84C207.831 161.085 207.712 161.842 207.876 162.443C207.839 168.122 207.846 173.801 207.72 179.479C207.683 181.246 208.262 181.847 210.036 181.803C213.986 181.699 217.943 181.773 221.9 181.773L221.811 181.684C221.826 182.419 221.945 183.161 221.833 183.874C221.269 187.526 222.123 189.783 226.481 189.011C227.409 188.847 228.3 188.922 228.611 190.324C229.51 194.37 228.53 195.743 224.402 195.81C223.793 195.818 223.192 195.899 222.583 195.951C222.108 195.87 221.9 196.048 222.019 196.538C222.034 200.754 222.056 204.978 222.071 209.194C221.996 209.595 222.145 209.773 222.561 209.669C224.565 209.766 226.562 209.862 228.567 209.959L228.478 209.877C228.537 213.7 228.485 217.523 228.686 221.338C228.849 224.493 226.659 223.677 224.959 223.818C223.006 223.981 221.558 223.743 221.826 221.145C222.071 218.814 222.353 216.587 218.522 216.714C215.419 216.818 214.275 217.694 214.661 220.737C214.802 221.813 214.535 222.942 214.453 224.048C212.145 223.728 209.836 223.602 207.556 224.204C207.631 223.224 207.816 222.244 207.735 221.279C207.616 219.868 208.499 218.02 207.156 217.144C205.745 216.224 203.8 216.625 202.144 216.907C200.34 217.211 201.261 218.866 201.06 219.943C200.526 222.897 201.61 224.278 204.765 223.818C205.686 223.684 206.68 224.003 207.638 224.107C207.925 228.467 205.906 230.647 201.58 230.647C201.454 230.647 201.335 230.647 201.209 230.647C196.442 230.647 193.938 232.948 193.695 237.55C191.438 237.484 189.182 237.417 186.925 237.35L187.021 237.38C186.991 233.683 186.821 229.979 186.984 226.282C187.11 223.335 185.15 223.914 183.554 223.981C181.928 224.048 179.634 223.046 179.716 226.297C179.805 229.986 179.597 233.683 179.515 237.372L179.582 237.35C177.325 237.736 175.076 237.736 172.819 237.35L172.923 237.38C172.908 236.4 172.759 235.398 172.908 234.447C173.42 231.293 172.046 230.58 169.062 230.647C166.389 230.706 165.61 231.627 165.87 234.084C165.988 235.168 165.81 236.281 165.766 237.38L165.855 237.313H165.87ZM214.587 199.975C214.587 197.31 214.402 195.194 214.632 193.123C214.973 190.02 214.134 188.506 210.682 188.988C208.625 189.278 206.495 189.011 204.394 189.048C201.075 189.107 196.687 187.964 194.713 189.642C192.389 191.609 193.992 196.144 193.978 199.551C193.97 202.832 192.47 207.093 194.683 209.157C196.836 211.161 201.045 209.766 204.342 209.743C207.631 209.714 211.9 211.221 213.956 209.068C215.983 206.945 214.327 202.706 214.595 199.975H214.587Z" fill="black"/>
<path d="M103.379 244.662C103.253 238.019 103.119 231.375 102.993 224.731C103.089 224.501 103.134 224.256 103.126 224.011C103.98 223.952 104.871 223.722 105.688 223.855C109.214 224.449 109.979 222.838 109.883 219.587C109.808 217.011 108.873 216.321 106.631 216.677C104.106 217.071 102.607 216.358 102.993 213.478C103.03 206.715 103.23 199.953 103.045 193.198C102.956 190.028 103.565 188.328 107.15 188.907C108.086 189.056 109.341 189.382 109.793 187.734C110.833 183.964 109.489 181.759 105.599 181.878C102.77 181.967 103.037 180.334 103.149 178.619C103.253 177.001 102.236 174.796 105.517 174.915C111.657 175.137 117.812 175.063 123.959 175.108L123.862 175.011C123.917 179.089 125.894 181.36 129.794 181.826C130.232 181.878 130.633 182.249 131.056 182.471C130.982 184.535 130.856 186.599 130.848 188.67C130.824 193.312 128.495 195.712 123.862 195.87C123.877 194.274 123.818 192.678 123.937 191.09C124.063 189.42 123.276 189.1 121.769 189.011C117.002 188.751 116.987 188.692 117.047 193.332C117.062 194.185 117.181 195.039 117.247 195.885C112.461 195.657 110.071 197.956 110.076 202.781C110.08 207.482 112.466 209.841 117.232 209.855C117.173 213.411 117.284 216.974 116.995 220.508C116.757 223.462 118.316 223.529 120.536 223.566C122.875 223.61 124.419 223.269 123.929 220.448C123.424 217.523 124.412 216.002 127.597 216.588C130.5 217.123 131.309 215.72 130.93 213.099C130.774 212.023 131.123 210.88 130.492 209.87C132.957 209.892 135.422 209.915 137.887 209.937C137.901 210.553 138.005 211.184 137.909 211.785C137.33 215.423 138.421 217.382 142.504 216.61C144.62 216.21 145.103 217.501 144.828 219.223C144.271 222.69 145.452 224.345 149.157 223.729C151.295 223.373 151.918 224.486 151.874 226.513C151.777 231.575 151.822 236.638 151.859 241.701C151.874 243.467 151.436 245.375 149.461 244.9C147.724 244.484 144.078 245.65 144.902 241.456C145.467 238.546 144.175 237.425 141.265 237.781C139.802 237.959 138.288 237.937 136.825 237.781C133.172 237.403 130.121 237.403 130.975 242.636C131.353 244.967 129.208 244.506 127.827 244.521C119.675 244.588 111.523 244.618 103.364 244.655L103.379 244.662ZM120.529 230.759C117.938 230.759 115.332 230.915 112.756 230.714C110.135 230.514 109.986 231.999 110.09 233.914C110.187 235.673 109.526 237.722 112.622 237.633C117.797 237.477 122.994 237.447 128.168 237.633C131.183 237.744 130.804 235.903 130.811 234.047C130.819 232.273 131.056 230.529 128.295 230.722C125.718 230.9 123.112 230.759 120.521 230.751L120.529 230.759ZM144.665 227.359C145.259 224.635 144.271 223.648 141.406 223.766C139.045 223.863 137.805 224.16 137.968 226.958C138.102 229.274 137.998 230.922 141.213 230.722C143.692 230.566 145.415 230.432 144.665 227.359Z" fill="black"/>
<path d="M221.113 42.25C230.467 42.2945 239.822 42.3317 249.176 42.3762C249.28 54.2235 249.384 66.0634 249.488 77.9107C249.444 81.355 249.228 84.7993 249.414 88.2288C249.547 90.7527 248.575 91.3094 246.251 91.2649C240.839 91.1535 235.427 91.3094 230.014 91.3539C221.425 91.3094 212.835 91.1535 204.245 91.2797C201.632 91.3168 200.912 90.5374 200.986 87.9838C201.142 82.7208 200.963 77.443 200.919 72.1726C200.963 63.2797 201.082 54.3942 200.993 45.5087C200.971 43.1334 201.58 42.302 204.067 42.3613C209.746 42.495 215.426 42.3168 221.105 42.2648L221.113 42.25ZM242.628 66.9987C242.628 61.9361 242.569 56.8735 242.658 51.8184C242.688 50.0591 242.123 49.4578 240.341 49.4653C230.341 49.5247 220.333 49.5321 210.333 49.4653C208.365 49.4504 207.816 50.2002 207.831 52.0782C207.898 61.8322 207.92 71.5787 207.823 81.3327C207.801 83.4632 208.514 84.0867 210.585 84.0644C220.341 83.9828 230.096 83.9457 239.851 84.0793C242.264 84.109 242.732 83.2256 242.665 81.0729C242.524 76.3889 242.621 71.6901 242.628 67.0061V66.9987Z" fill="black"/>
<path d="M172.826 160.937C172.848 167.061 172.863 173.192 172.877 179.317C172.877 180.534 173.078 181.61 171.155 181.818C165.639 182.419 165.646 182.531 165.966 188.15C165.988 188.514 166.114 188.863 166.188 189.226L166.263 189.152C163.827 189.041 161.385 188.929 158.95 188.818C158.913 185.129 158.668 181.425 158.913 177.75C159.113 174.803 157.465 174.944 155.512 175.004C153.708 175.063 151.77 174.492 152.023 177.632C152.312 181.18 152.09 184.765 152.09 188.336C152.09 193.062 149.862 195.62 145.408 196.011C145.148 195.967 144.881 195.922 144.621 195.878C144.621 191.409 144.621 186.94 144.621 182.471C144.688 181.952 144.406 181.826 143.96 181.9C139.988 181.9 136.016 181.885 132.044 181.885C130.99 181.529 130.879 180.593 131.042 179.777C131.985 175.1 129.379 174.44 125.682 174.929C125.08 175.011 124.464 174.989 123.855 175.019L123.952 175.115C123.922 170.387 123.885 165.658 123.855 160.929C128.305 160.949 130.661 158.849 130.923 154.627C130.931 154.508 130.975 154.39 130.998 154.271L131.101 154.241C135.576 153.583 137.902 155.464 138.08 159.883C138.08 160.002 138.117 160.12 138.132 160.239C138.051 160.714 138.244 160.922 138.726 160.826H141.703C144.027 160.67 145.349 161.442 144.873 164.077C144.666 165.242 145.096 166.489 144.495 167.625C143.025 167.699 141.555 167.766 140.077 167.848C139.365 167.885 138.355 167.736 138.221 168.62C137.932 170.542 137.278 172.888 138.503 174.321C139.676 175.701 142.104 175.16 143.775 174.685C145.653 174.15 144.576 172.146 144.717 170.802C144.829 169.733 144.517 168.62 144.391 167.529C147.947 167.61 151.525 167.506 155.059 167.826C158.103 168.1 159.41 167.157 158.875 164.032C158.482 161.709 159.358 160.729 161.867 160.878C165.542 161.1 169.24 160.981 172.922 161.011L172.818 160.929L172.826 160.937Z" fill="black"/>
<path d="M249.487 169.864C249.487 175.55 249.487 181.236 249.487 186.922C249.487 187.167 249.487 187.412 249.487 187.657C247.639 190.285 244.758 188.014 242.59 189.12L242.679 189.194C242.679 187.962 242.546 186.707 242.724 185.497C243.192 182.357 241.878 181.555 238.849 181.682C233.184 181.912 227.497 181.704 221.817 181.682L221.906 181.771C221.855 175.825 221.795 169.871 221.743 163.926C221.803 162.946 221.862 161.973 221.929 160.993C224.104 161.016 226.287 161.031 228.462 161.045C228.544 164.846 228.677 168.647 228.663 172.447C228.663 174.132 229.197 174.763 230.964 174.912C242.776 175.899 242.769 175.936 242.627 164.163C242.627 163.792 242.59 163.421 242.627 163.057C242.798 161.461 242.1 160.867 240.512 160.919C236.458 161.053 232.412 161.075 228.358 161.142C228.432 158.848 228.514 156.547 228.588 154.253L228.477 154.35C228.959 154.268 229.457 154.06 229.91 154.127C233.978 154.728 236.562 153.786 235.701 148.894C235.411 147.231 236.517 146.904 237.95 146.912C241.239 146.927 244.535 146.838 247.824 146.793C249.933 147.053 249.317 148.708 249.332 149.926C249.421 156.569 249.443 163.22 249.487 169.871V169.864Z" fill="black"/>
<path d="M179.478 140.27C180.339 140.21 181.222 139.995 182.054 140.114C185.699 140.641 187.659 139.55 186.894 135.482C186.531 133.567 187.429 132.802 189.374 132.965C190.718 133.077 192.084 132.928 193.442 132.898C193.957 137.674 196.655 140.062 201.535 140.062C202.396 140.062 203.28 140.166 204.126 140.047C206.955 139.639 208.335 140.633 207.764 143.625C207.2 146.594 208.707 147.366 211.283 146.898C214.327 146.349 214.639 147.967 214.639 150.476C214.639 152.911 214.171 153.988 211.416 153.913C204.26 153.728 197.088 153.854 189.923 153.839C188.491 153.839 186.568 154.158 187.035 151.783C187.963 147.062 185.432 146.431 181.705 146.898C180.977 146.988 180.227 146.861 179.485 146.832L179.604 146.936C179.938 144.679 179.908 142.422 179.604 140.166L179.478 140.277V140.27Z" fill="black"/>
<path d="M235.181 133.308C234.335 133.205 233.459 132.922 232.642 133.034C229.546 133.464 228.559 132.247 228.715 129.152C228.834 126.806 229.361 125.796 231.87 126.034C234.068 126.242 236.31 126.078 238.53 126.071C242.472 126.071 243.712 124.26 242.628 120.4C242.153 118.707 240.868 119.145 239.97 119.286C236.325 119.858 235.612 118.098 235.842 114.921C236.072 111.729 235.887 108.515 235.879 105.308L235.79 105.398C236.525 105.338 237.26 105.301 237.988 105.212C241.247 104.796 243.578 105.308 242.709 109.51C242.153 112.205 244.038 112.286 245.835 112.019C248.834 111.574 249.569 112.85 249.428 115.664C249.206 120.073 249.176 124.505 249.436 128.907C249.621 132.017 248.894 133.576 245.486 132.96C244.803 132.833 244.046 133.115 243.326 133.212L243.044 133.197L243.006 133.487C242.925 133.962 242.784 134.429 242.769 134.904C242.561 140.605 241.885 141.051 235.827 139.447C235.909 139.202 235.887 138.972 235.768 138.742C235.768 137.488 235.768 136.241 235.768 134.986C235.827 134.34 236.25 133.576 235.204 133.308H235.181Z" fill="black"/>
<path d="M179.477 146.816C179.566 150.832 179.625 154.856 179.766 158.864C179.826 160.475 179.143 161.024 177.591 160.935C176.01 160.846 174.413 160.92 172.832 160.928L172.936 161.009C172.936 156.281 172.936 151.552 172.936 146.824L172.839 146.92C175.096 146.92 177.346 146.92 179.603 146.92L179.484 146.816H179.477Z" fill="black"/>
<path d="M221.58 140.327C226.277 139.832 228.623 141.834 228.618 146.333C228.611 149.005 228.522 151.677 228.47 154.357L228.581 154.261C226.421 154.238 224.26 154.216 222.1 154.194C221.959 149.539 221.818 144.893 221.677 140.238L221.58 140.335V140.327Z" fill="black"/>
<path d="M235.871 105.305C234.765 105.282 233.629 105.104 232.553 105.26C229.338 105.743 228.321 104.258 228.789 101.311C228.967 100.198 228.224 98.5199 229.969 98.2527C231.751 97.9855 233.666 97.6589 235.374 98.5645C235.73 98.7575 235.849 99.6482 235.856 100.22C235.886 101.942 235.819 103.664 235.782 105.394L235.871 105.305Z" fill="black"/>
<path d="M221.669 140.234C220.816 140.196 219.969 140.122 219.115 140.115C215.188 140.085 213.614 137.94 215.069 134.199C215.99 131.838 218.247 133.36 219.873 133.033C221.172 132.773 221.966 133.397 221.87 134.859C221.751 136.678 221.677 138.497 221.58 140.315L221.669 140.226V140.234Z" fill="black"/>
<path d="M166.195 189.217C167.034 189.106 167.873 188.92 168.719 188.905C172.632 188.816 174.035 190.768 172.765 194.569C172.008 196.833 170.07 195.534 168.675 195.727C167.591 195.883 166.002 196.217 166.017 194.242C166.032 192.543 166.18 190.843 166.269 189.15L166.195 189.224V189.217Z" fill="black"/>
<path d="M221.862 111.971C222.716 112.001 223.577 112.053 224.431 112.06C228.462 112.09 229.732 113.723 228.521 117.62C227.772 120.033 225.648 118.585 224.163 118.867C222.849 119.12 221.721 118.837 221.84 117.011C221.958 115.304 221.921 113.582 221.951 111.867L221.855 111.964L221.862 111.971Z" fill="black"/>
<path d="M235.182 133.305C236.236 133.572 235.813 134.337 235.746 134.982C235.56 134.426 235.367 133.861 235.182 133.305Z" fill="black"/>
<path d="M235.754 138.742C235.872 138.965 235.895 139.202 235.813 139.447C235.754 139.291 235.687 139.136 235.657 138.98C235.642 138.913 235.724 138.824 235.754 138.742Z" fill="black"/>
<path d="M166.181 216.341C165.876 216.341 165.669 216.275 165.914 215.926C166.04 216.045 166.129 216.186 166.181 216.341Z" fill="black"/>
<path d="M242.992 133.493L243.029 133.203L243.311 133.218C243.23 133.337 243.126 133.433 242.992 133.493Z" fill="black"/>
<path d="M242.584 189.129C242.613 190.465 242.777 191.816 242.65 193.137C242.457 195.23 243.296 196.136 245.338 195.765C248.85 195.127 249.807 196.789 249.384 199.966C249.243 201.035 249.443 202.149 249.488 203.24C249.231 207.634 246.897 209.834 242.487 209.839C237.817 209.839 233.147 209.869 228.478 209.884L228.567 209.965C228.604 208.362 228.752 206.751 228.656 205.155C228.537 203.233 229.294 202.275 231.21 202.639C235.634 203.485 236.496 201.206 235.931 197.502C235.805 196.656 235.909 195.772 235.909 194.911C235.909 190.527 238.159 188.624 242.658 189.203L242.569 189.129H242.584Z" fill="black"/>
<path d="M218.885 244.754C216.071 244.687 213.25 244.449 210.451 244.605C207.497 244.776 207.793 242.935 207.793 241.049C207.793 239.268 207.615 237.375 210.31 237.858C214.334 238.585 215.143 236.544 214.772 233.099C214.446 230.078 215.136 226.998 214.386 223.984C219.365 223.677 221.855 226.013 221.855 230.991V231.362C221.855 235.881 224.102 238.117 228.596 238.073L228.507 237.984C228.556 242.353 226.433 244.548 222.137 244.568C221.053 244.568 219.962 244.687 218.878 244.754H218.885Z" fill="black"/>
<path d="M242.635 237.447C242.635 233.75 242.776 230.039 242.576 226.349C242.42 223.484 244.246 223.9 245.932 223.944C247.52 223.989 249.48 223.276 249.391 226.238C249.235 231.538 249.272 236.846 249.391 242.146C249.436 244.232 248.485 244.647 246.704 244.566C244.61 244.477 242.509 244.544 240.408 244.544C234.55 244.544 234.194 244.054 235.753 238.197L235.686 238.271C237.416 237.514 239.198 237.84 240.965 238.033C241.522 237.833 242.078 237.64 242.635 237.44V237.447Z" fill="black"/>
<path d="M228.603 238.07C228.618 236.838 228.789 235.584 228.618 234.374C228.21 231.419 229.405 230.625 232.308 230.625C235.107 230.625 236.154 231.449 235.797 234.203C235.626 235.539 235.723 236.912 235.693 238.271C235.693 238.271 235.76 238.189 235.76 238.197C233.377 237.113 230.92 238.338 228.521 237.974L228.611 238.063L228.603 238.07Z" fill="black"/>
<path d="M80.1353 244.751C69.2812 244.684 58.4344 244.618 47.5802 244.558C47.5357 229.163 47.5579 213.767 47.3872 198.372C47.3575 195.647 48.7532 195.811 50.5796 195.811C62.1614 195.803 73.7431 195.744 85.3323 195.699C87.9233 195.744 90.5218 195.914 93.1054 195.781C95.1694 195.677 95.9192 196.293 95.8524 198.446C95.7336 202.261 95.9044 206.092 95.9563 209.914C95.9563 221.049 95.9563 232.184 95.9563 243.319C95.8375 243.534 95.8153 243.764 95.8969 243.994C92.0438 245.234 88.0867 244.239 84.189 244.536C82.8378 244.64 81.4866 244.677 80.1279 244.744L80.1353 244.751ZM54.9005 237.284C59.11 237.284 63.3121 237.284 67.5216 237.291C73.8025 237.343 80.0908 237.35 86.3717 237.469C88.1683 237.506 89.0518 237.105 89.0073 235.042C88.8588 227.656 88.8736 220.262 88.8291 212.876C88.8736 210.286 88.8662 207.688 88.9776 205.104C89.0444 203.486 88.3391 202.922 86.7949 202.937C76.1708 203.033 65.5394 203.085 54.9153 203.152C54.3288 203.137 54.2397 203.493 54.3065 203.969C54.3065 214.858 54.314 225.741 54.3214 236.63C54.2397 237.091 54.3882 237.358 54.9079 237.284H54.9005Z" fill="black"/>
<path d="M89.0814 175.019C89.0517 175.872 89.1111 176.733 88.9923 177.58C88.5468 180.697 89.4303 182.472 92.9939 181.774C95.7631 181.232 95.8968 182.954 95.7854 184.995C95.6815 186.881 96.3125 189.093 93.0385 188.722C91.4794 188.544 89.8758 188.766 88.287 188.803C84.7382 188.766 81.182 188.655 77.6332 188.714C75.7772 188.744 74.968 188.128 75.0496 186.183C75.1684 183.251 75.1758 180.304 75.0496 177.364C74.9531 175.316 75.9108 174.9 77.6926 174.945C81.4864 175.048 85.2876 175.004 89.0888 175.019H89.0814Z" fill="black"/>
<path d="M53.9795 180.242C53.9795 179.01 53.9795 177.778 53.9795 176.546C54.0612 176.033 54.1354 175.529 54.2171 175.016L54.128 175.106C58.7805 174.794 61.03 172.287 60.8766 167.586L60.7875 167.675C63.2969 167.675 65.8062 167.675 68.3156 167.675L68.2191 167.638C68.2043 173.673 68.0112 179.708 68.2414 185.728C68.3602 188.757 66.8234 188.772 64.6406 188.749C62.5248 188.727 60.4831 188.861 61.0473 185.787C61.7155 182.158 59.8743 181.341 56.7487 181.757C55.9098 181.868 55.0337 181.705 54.1725 181.668L54.2096 181.779C54.1354 181.267 54.0537 180.755 53.9795 180.242Z" fill="black"/>
<path d="M88.9844 167.598C90.4395 167.65 91.9021 167.835 93.3498 167.724C95.3321 167.575 95.733 168.466 95.8369 170.27C96.0151 173.469 95.733 175.882 91.5235 175.013C90.7216 174.85 89.8307 175.073 88.9844 175.117C88.9844 172.608 88.9844 170.107 88.9844 167.598Z" fill="black"/>
<path d="M47.4616 188.488C47.4096 186.476 47.3576 184.465 47.3057 182.453C47.3948 182.223 47.4913 181.993 47.5804 181.763C49.0281 181.718 50.4832 181.673 51.9309 181.629C52.6882 181.681 53.4529 181.725 54.2102 181.777L54.1731 181.666C54.1582 182.03 54.1285 182.393 54.1211 182.757C54.0815 186.944 51.8617 188.854 47.4616 188.488Z" fill="black"/>
<path d="M53.4082 175.135C52.6732 175.083 51.9382 175.002 51.2032 174.987C47.8697 174.92 46.0211 171.691 47.5282 168.625C47.9588 167.757 48.6567 167.823 49.3694 167.801C50.9656 167.749 52.5618 167.727 54.1654 167.697L54.1209 167.586C54.1209 170.095 54.1209 172.604 54.1209 175.113L54.21 175.024C53.9427 175.061 53.6754 175.098 53.4082 175.135Z" fill="black"/>
<path d="M54.2083 160.884C53.3471 160.906 52.4784 160.936 51.6172 160.936C47.5636 160.951 46.2867 159.258 47.482 155.354C48.2021 153.001 50.1769 154.411 51.5578 154.181C52.6789 153.995 54.1712 153.795 54.1192 155.799C54.0747 157.529 54.1118 159.258 54.1118 160.988L54.2157 160.884H54.2083Z" fill="black"/>
<path d="M54.1055 160.987C56.3699 160.994 58.6268 161.009 60.8912 161.016L60.7873 160.927V167.675L60.8763 167.586C58.6268 167.586 56.3773 167.586 54.1277 167.586L54.1723 167.697C54.1871 165.426 54.202 163.154 54.2168 160.883L54.1129 160.987H54.1055Z" fill="black"/>
<path d="M179.589 77.1518C179.634 73.4551 179.76 69.7658 179.686 66.0765C179.649 64.102 180.139 63.1073 182.351 63.2112C185.306 63.3523 188.276 63.3894 191.223 63.2038C194.022 63.0256 193.814 64.7998 193.658 66.5294C193.517 68.1179 194.668 70.7308 191.394 70.3151C187.934 69.8698 186.293 70.9238 186.984 74.6206C187.385 76.7361 186.368 77.4488 184.311 77.2632C182.975 77.1444 181.616 77.3523 180.265 77.4116C180.005 77.3151 179.745 77.2186 179.485 77.1221L179.582 77.1593L179.589 77.1518Z" fill="black"/>
<path d="M179.581 49.5039C179.581 49.5039 179.641 49.6004 179.641 49.6078C179.67 48.6205 179.715 47.6407 179.722 46.6534C179.759 42.6078 181.801 41.1751 185.721 42.4445C187.844 43.1348 186.671 44.9238 186.902 46.208C187.154 47.6481 186.352 49.7711 189.203 49.0436C190.836 49.786 193.91 47.8782 193.747 51.9461C193.576 56.4074 193.212 56.9122 188.691 56.3703C187.495 56.2292 186.953 55.9026 186.887 54.6407C186.798 52.9482 187.711 50.5134 186.397 49.734C184.466 48.5834 181.875 49.1624 179.566 49.5113L179.581 49.5039Z" fill="black"/>
<path d="M190.688 84.1954C194.541 83.8985 193.502 86.7044 193.695 88.8274C193.881 90.8688 192.938 91.3587 191.119 91.2325C189.062 91.0915 186.456 91.9154 186.857 88.2855C186.493 85.3905 187.466 83.7426 190.688 84.1954Z" fill="black"/>
<path d="M179.492 77.1211C179.752 77.2176 180.012 77.3141 180.272 77.4106C180.19 77.5962 180.071 77.7521 179.901 77.8634C179.767 77.6184 179.626 77.3735 179.492 77.1285V77.1211Z" fill="black"/>
<path d="M109.825 63.1309C114.645 63.2249 117.058 65.6943 117.063 70.5391C117.063 72.7438 117.145 74.9485 117.189 77.1531L117.293 77.116C115.935 77.1531 114.561 77.0492 113.225 77.2496C110.352 77.6876 109.624 76.4554 109.795 73.7534C110.018 70.1903 109.847 66.5975 109.839 63.0195L109.817 63.1309H109.825Z" fill="black"/>
<path d="M109.749 56.4485C110.15 51.8214 112.837 49.3693 117.812 49.0922L118.124 49.0625C118.034 49.2035 117.96 49.352 117.893 49.5005C117.225 49.5153 117.136 49.931 117.24 50.4729C117.196 52.3806 117.151 54.2884 117.106 56.1887C114.656 56.2778 112.206 56.3594 109.749 56.4485Z" fill="black"/>
<path d="M144.667 56.3528C143.813 56.3677 142.952 56.3008 142.105 56.4048C139.217 56.7759 137.651 56.234 137.873 52.6338C138.044 49.9095 138.675 48.8555 141.407 49.2043C142.469 49.338 143.583 49.093 144.674 49.0262L144.637 48.9297C144.637 51.4387 144.637 53.9477 144.637 56.4642L144.667 56.3602V56.3528Z" fill="black"/>
<path d="M103.171 63.0621C103.111 58.6379 105.338 56.401 109.852 56.3516C109.845 58.6082 109.837 60.8722 109.823 63.1289L109.845 63.0175C107.618 63.0324 105.39 63.0472 103.163 63.0621H103.171Z" fill="black"/>
<path d="M130.382 63.1784C129.639 63.1784 128.904 63.1858 128.162 63.1858C124.205 63.1858 122.742 61.2706 124.078 57.5665C124.917 55.2357 127.041 56.7277 128.555 56.4308C129.572 56.2304 130.968 56.1413 130.842 57.8931C130.716 59.6895 131.451 61.575 130.285 63.2675L130.382 63.1784Z" fill="black"/>
<path d="M118.124 49.0661C118.124 49.0661 117.805 49.0958 117.812 49.0958C115.763 43.8403 116.974 41.9028 121.911 42.3779C123.232 42.5041 123.96 42.8456 123.871 44.2782C123.789 45.607 123.782 46.9357 123.744 48.2719C123.551 48.5168 123.358 48.7692 123.165 49.0142C122.92 49.1701 122.675 49.326 122.43 49.4893C120.997 49.3482 119.557 49.2072 118.124 49.0661Z" fill="black"/>
<path d="M123.165 49.0118C123.358 48.7669 123.551 48.5145 123.744 48.2695C123.855 48.4922 123.907 48.7372 123.9 48.9822C123.655 48.9896 123.41 49.0044 123.157 49.0118H123.165Z" fill="black"/>
<path d="M68.2568 103.124C68.1974 103.747 68.138 104.371 68.0786 104.987C61.9016 105.054 55.7247 105.076 49.5478 105.232C47.9144 105.269 47.3354 104.586 47.3057 103.124C47.3948 101.461 47.4764 99.7983 47.5655 98.1355C52.5768 98.1281 57.5808 98.1133 62.5921 98.1133C66.1211 98.1133 68.0142 99.786 68.2716 103.131L68.2568 103.124Z" fill="black"/>
<path d="M53.4298 126.216C52.9472 126.187 52.331 125.942 51.997 126.15C50.4156 127.144 48.6041 127.04 47.8023 125.675C46.8371 124.019 46.8742 121.54 47.6909 119.996C48.6115 118.266 51.0318 119.402 52.7913 119.298C54.2316 119.209 54.1128 120.412 54.1203 121.391C54.1203 122.98 54.1203 124.576 54.1203 126.165L54.2242 126.068C53.9569 126.12 53.6971 126.165 53.4298 126.216Z" fill="black"/>
<path d="M53.4287 126.219C53.696 126.167 53.9558 126.122 54.2231 126.07C54.1489 126.33 54.0672 126.59 53.993 126.842C53.8073 126.634 53.6217 126.427 53.4361 126.219H53.4287Z" fill="black"/>
<path d="M63.0655 42.25C73.452 42.25 83.8384 42.25 94.2323 42.25C96.3631 42.5024 95.7171 44.1652 95.732 45.3751C95.8137 53.7484 95.8359 62.1217 95.8805 70.495C95.8359 76.5225 95.7023 82.5501 95.7914 88.5777C95.8211 90.6933 95.1455 91.3242 93.0667 91.2574C89.5031 91.1387 85.932 91.302 82.361 91.3539C71.4771 91.3539 60.5932 91.3539 49.7168 91.3539C47.3113 91.5321 47.4078 89.951 47.4078 88.2511C47.4078 79.8629 47.3336 71.4674 47.2891 63.0793C47.3336 57.3041 47.5563 51.5215 47.3485 45.7537C47.2371 42.8661 48.2319 42.2203 50.8972 42.3391C54.9434 42.5172 59.0045 42.2945 63.0655 42.25ZM88.8275 73.6498C88.872 66.4865 88.8498 59.3232 89.0131 52.1599C89.0576 50.0146 88.3152 49.4133 86.2513 49.4282C76.3622 49.5098 66.4732 49.5098 56.5767 49.4133C54.5499 49.391 54.1193 50.1334 54.1342 51.9891C54.2084 61.8767 54.201 71.7569 54.1416 81.6445C54.1342 83.3518 54.5722 84.057 56.406 84.0199C63.5703 83.8863 70.7347 83.8789 77.9065 83.8195C78.2703 83.8714 78.6266 83.9679 78.9904 83.9754C85.9989 84.2079 89.2779 80.7636 88.8275 73.6424V73.6498Z" fill="black"/>
<path d="M103.119 224.008C103.126 224.26 103.082 224.498 102.985 224.728C103.03 224.49 103.074 224.245 103.119 224.008Z" fill="black"/>
<path d="M95.8965 244C95.8148 243.762 95.8296 243.539 95.9559 243.324C96.1043 243.562 96.0821 243.792 95.8965 244Z" fill="black"/>
<path d="M186.932 237.351C186.947 238.569 186.813 239.808 186.991 240.996C187.437 243.965 186.137 244.626 183.339 244.656C180.458 244.685 179.359 243.861 179.738 240.981C179.894 239.801 179.649 238.561 179.589 237.351L179.522 237.373C182.024 237.789 184.526 237.767 187.028 237.373L186.932 237.344V237.351Z" fill="black"/>
<path d="M165.869 237.312L165.78 237.379C168.163 237.728 170.547 237.795 172.93 237.379L172.826 237.35C172.848 238.329 172.893 239.309 172.893 240.289C172.915 244.676 172.217 245.174 167.755 244.587C166.293 244.394 165.914 243.733 165.921 242.457C165.936 240.742 165.892 239.027 165.869 237.32V237.312Z" fill="black"/>
<path d="M249.479 187.668C249.479 187.424 249.479 187.179 249.479 186.934C250.17 187.179 250.17 187.424 249.479 187.668Z" fill="black"/>
<path d="M109.995 103.875C110.18 104.261 110.373 104.647 110.559 105.033C110.292 105.13 110.032 105.219 109.765 105.315L109.869 105.382C109.906 104.877 109.95 104.38 109.987 103.875H109.995Z" fill="black"/>
<path d="M129.929 105.372L130.085 105.246L130.241 105.365L129.929 105.372Z" fill="black"/>
<path d="M117.107 146.562C116.906 146.696 116.706 146.83 116.513 146.963C116.654 146.748 116.854 146.614 117.107 146.562Z" fill="black"/>
<path d="M95.7393 160.223C95.7616 160.787 95.4349 160.868 94.9746 160.787C95.227 160.601 95.4795 160.408 95.7393 160.223Z" fill="black"/>
<path d="M110.536 147.076C110.358 147.254 110.18 147.425 110.009 147.603C109.905 147.143 110.083 146.972 110.536 147.076Z" fill="black"/>
<path d="M151.674 140.87C151.533 140.736 151.436 140.58 151.377 140.395C151.733 140.395 151.904 140.506 151.674 140.87Z" fill="black"/>
<path d="M89.0723 126.218C89.3024 126.136 89.5251 126.054 89.7553 125.973C89.54 126.084 89.3098 126.166 89.0723 126.218Z" fill="black"/>
<path d="M222.581 195.962C222.396 196.155 222.203 196.348 222.017 196.548C221.898 196.058 222.106 195.888 222.581 195.962Z" fill="black"/>
<path d="M222.07 209.195C222.263 209.322 222.426 209.485 222.56 209.67C222.144 209.774 221.996 209.596 222.07 209.195Z" fill="black"/>
<path d="M123.937 153.743C123.922 152.763 123.885 151.783 123.885 150.803C123.885 147.262 126.699 145.562 130.077 146.98C131.146 147.433 131.057 148.264 131.079 149.088C131.124 150.803 131.102 152.518 131.109 154.233L130.998 154.27C128.659 153.683 126.187 154.611 123.878 153.646L123.937 153.75V153.743Z" fill="black"/>
<path d="M145.408 196.011C145.319 196.227 145.185 196.412 145.015 196.568C144.911 196.308 144.814 196.041 144.71 195.781L144.621 195.885C144.881 195.93 145.148 195.974 145.408 196.019V196.011Z" fill="black"/>
<path d="M138.14 160.238C138.341 160.431 138.534 160.632 138.734 160.825C138.252 160.914 138.059 160.713 138.14 160.238Z" fill="black"/>
<path d="M144.628 182.47C144.405 182.277 144.183 182.091 143.96 181.898C144.405 181.824 144.688 181.95 144.628 182.47Z" fill="black"/>
<path d="M117.196 195.781H123.952C123.937 197.117 124.049 198.476 123.885 199.79C123.611 202.032 124.435 203.026 126.699 202.603C130.448 201.905 131.436 203.746 130.909 207.072C130.76 208.022 130.708 208.994 130.612 209.959C126.142 209.959 121.673 209.959 117.196 209.959C117.196 205.231 117.196 200.502 117.196 195.781Z" fill="black"/>
<path d="M144.718 195.77C144.822 196.029 144.918 196.297 145.022 196.556C145.015 198.308 145 200.053 144.992 201.805C144.911 202.035 144.822 202.272 144.74 202.502C143.879 202.532 143.025 202.591 142.164 202.599C138.17 202.621 136.959 200.899 138.021 196.994C138.34 195.814 139.06 195.814 139.922 195.807C141.518 195.784 143.114 195.784 144.718 195.77Z" fill="black"/>
<path d="M54.9064 203.153C54.706 203.427 54.4981 203.695 54.2977 203.969C54.2308 203.494 54.3274 203.138 54.9064 203.153Z" fill="black"/>
<path d="M54.3046 236.621C54.4976 236.844 54.6906 237.059 54.8911 237.274C54.3714 237.341 54.2303 237.081 54.3046 236.621Z" fill="black"/>
<path d="M123.886 153.648C123.908 156.105 123.938 158.563 123.96 161.02C123.099 160.99 122.23 161.042 121.384 160.923C118.251 160.478 116.454 161.339 117.137 164.939C117.575 167.255 116.417 167.931 114.234 167.789C111.91 167.634 109.564 167.76 107.233 167.752C103.283 167.752 102.073 166.001 103.12 162.126C103.447 160.923 104.182 161.042 105.021 160.953C108.327 160.596 109.945 158.736 109.876 155.371C109.869 155.007 109.809 154.636 109.772 154.272C114.494 154.101 119.216 153.931 123.945 153.76L123.886 153.648Z" fill="black"/>
<path d="M117.893 49.5C117.678 49.8266 117.455 50.1458 117.24 50.4724C117.136 49.9305 117.225 49.5223 117.893 49.5Z" fill="black"/>
<path d="M109.764 105.321C110.032 105.225 110.291 105.136 110.559 105.039C111.65 105.091 112.764 105.314 113.818 105.15C116.372 104.772 117.374 105.878 117.24 108.313C116.988 109.567 116.921 110.814 117.285 112.061C114.776 112.061 112.266 112.061 109.757 112.061C109.757 109.812 109.757 107.563 109.757 105.321H109.764Z" fill="black"/>
<path d="M123.862 91.2109C126.119 91.2109 128.369 91.2109 130.626 91.2109C131.131 99.6065 131.702 97.9957 123.951 97.9214C123.922 95.6871 123.892 93.4527 123.862 91.2184V91.2109Z" fill="black"/>
<path d="M144.621 140.137C144.643 142.386 144.666 144.635 144.68 146.884C144.435 146.929 144.19 146.981 143.953 147.025C142.216 147.025 140.478 147.025 138.734 147.018C138.511 146.907 138.281 146.825 138.043 146.773C138.043 146.647 138.043 146.528 138.043 146.402C138.018 141.997 140.246 139.941 144.725 140.233L144.628 140.137H144.621Z" fill="black"/>
<path d="M138.043 146.773C138.288 146.825 138.518 146.907 138.733 147.018C138.503 146.937 138.273 146.855 138.043 146.773Z" fill="black"/>
<path d="M143.953 147.028C144.198 146.983 144.443 146.931 144.681 146.887C144.436 146.931 144.191 146.983 143.953 147.028Z" fill="black"/>
<path d="M204.274 195.906C207.088 195.268 207.83 196.419 207.845 199.195C207.86 201.979 207.081 202.751 204.311 202.706C201.765 202.661 200.874 202.03 200.993 199.395C201.097 197.027 201.06 195.075 204.274 195.899V195.906Z" fill="black"/>
<path d="M235.612 67.647C235.293 70.3341 237.074 74.7212 234.877 76.6215C233.013 78.2398 228.752 77.1337 225.552 77.1783C222.709 77.2154 219.865 77.1189 217.029 77.208C215.425 77.2599 214.861 76.6364 214.883 75.0627C214.943 69.5028 214.95 63.9503 214.891 58.3904C214.876 56.6905 215.678 56.349 217.17 56.3638C222.605 56.4232 228.047 56.4307 233.481 56.3638C235.107 56.3416 235.664 56.98 235.634 58.5314C235.575 61.367 235.619 64.2101 235.619 67.6544L235.612 67.647Z" fill="black"/>
<path d="M81.9821 219.572C81.9227 222.155 81.6851 224.753 81.841 227.329C81.9969 229.83 81.3213 230.907 78.6115 230.699C75.9165 230.491 73.1844 230.736 70.4746 230.78C69.9846 230.736 69.4946 230.669 69.0046 230.662C63.7433 230.573 61.1127 227.95 61.1127 222.793C61.1127 219.341 61.1943 215.882 61.083 212.431C61.0236 210.53 61.6398 209.832 63.6072 209.877C68.9081 209.988 74.2238 209.973 79.5247 209.877C81.2991 209.847 81.893 210.434 81.841 212.193C81.7594 214.65 81.9227 217.115 81.9821 219.579V219.572Z" fill="black"/>
<path d="M81.9014 67.328C81.5673 70.0894 83.3862 74.469 81.1961 76.6143C79.1841 78.574 74.8558 77.223 71.5669 77.1413C68.1889 77.0523 63.6898 78.767 61.7595 76.3693C60.1113 74.3206 61.1656 70.0151 61.2175 66.7044C61.2695 63.4011 59.8218 59.1477 61.8041 57.0618C63.8012 54.9685 68.0924 56.5422 71.3664 56.3937C73.7051 56.2898 76.0734 56.5942 78.3823 56.3195C81.4708 55.9558 82.1761 57.3216 81.9459 60.0533C81.7603 62.2506 81.9088 64.4849 81.9088 67.3206L81.9014 67.328Z" fill="black"/>
</g>
<defs>
<filter id="filter0_b_1131_1989" x="-4" y="-3.01172" width="308" height="290" filterUnits="userSpaceOnUse" color-interpolation-filters="sRGB">
<feFlood flood-opacity="0" result="BackgroundImageFix"/>
<feGaussianBlur in="BackgroundImageFix" stdDeviation="2"/>
<feComposite in2="SourceAlpha" operator="in" result="effect1_backgroundBlur_1131_1989"/>
<feBlend mode="normal" in="SourceGraphic" in2="effect1_backgroundBlur_1131_1989" result="shape"/>
</filter>
<clipPath id="clip0_1131_1989">
<rect width="203" height="203" fill="white" transform="translate(47 41.9883)"/>
</clipPath>
</defs>
</svg>
