<svg width="75" height="75" viewBox="0 0 75 75" fill="none" xmlns="http://www.w3.org/2000/svg">
<path d="M70.1358 48.0261L59.4517 37.342L70.1358 26.6579C76.1254 20.6683 76.1254 10.9555 70.1358 4.96592C64.1463 -1.02365 54.4335 -1.02366 48.4439 4.96592L37.7598 15.65L27.0757 4.96592C21.0861 -1.02366 11.3733 -1.02365 5.38369 4.96592C-0.605883 10.9555 -0.605883 20.6683 5.38369 26.6579L16.0678 37.342L5.38369 48.0261C-0.605884 54.0157 -0.605883 63.7285 5.38369 69.7181C11.3733 75.7076 21.0861 75.7076 27.0756 69.7181L37.7598 59.034L48.4439 69.7181C54.4335 75.7076 64.1463 75.7076 70.1358 69.7181C76.1254 63.7285 76.1254 54.0157 70.1358 48.0261Z" fill="#705DF7"/>
</svg>
