<svg width="141" height="111" viewBox="0 0 141 111" fill="none" xmlns="http://www.w3.org/2000/svg">
<path d="M62.1546 55.2089C62.1546 69.9878 58.6377 83.2456 53.0817 92.7235C47.491 102.261 40.1314 107.551 32.506 107.551C24.8806 107.551 17.521 102.261 11.9303 92.7235C6.37426 83.2456 2.85742 69.9878 2.85742 55.2089C2.85742 40.4299 6.37426 27.1721 11.9303 17.6942C17.521 8.1571 24.8806 2.86719 32.506 2.86719C40.1314 2.86719 47.491 8.1571 53.0817 17.6942C58.6377 27.1721 62.1546 40.4299 62.1546 55.2089Z" fill="white" stroke="black" stroke-width="5"/>
<path d="M137.799 55.2089C137.799 69.9878 134.282 83.2456 128.726 92.7235C123.136 102.261 115.776 107.551 108.151 107.551C100.525 107.551 93.1655 102.261 87.5748 92.7235C82.0188 83.2456 78.502 69.9878 78.502 55.2089C78.502 40.4299 82.0188 27.1721 87.5748 17.6942C93.1655 8.1571 100.525 2.86719 108.151 2.86719C115.776 2.86719 123.136 8.1571 128.726 17.6942C134.282 27.1721 137.799 40.4299 137.799 55.2089Z" fill="white" stroke="black" stroke-width="5"/>
<ellipse cx="47.6351" cy="55.2014" rx="17.0198" ry="24.5842" fill="black"/>
<ellipse cx="123.282" cy="55.2014" rx="17.0198" ry="24.5842" fill="black"/>
</svg>
