<svg width="65" height="66" viewBox="0 0 65 66" fill="none" xmlns="http://www.w3.org/2000/svg">
<path d="M60.8526 42.4883L51.5188 33.1545L60.8526 23.8207C66.0852 18.5881 66.0852 10.1028 60.8526 4.87021C55.62 -0.362382 47.1348 -0.362382 41.9022 4.87021L32.5684 14.204L23.2345 4.87021C18.002 -0.362382 9.51668 -0.362382 4.28409 4.87021C-0.948502 10.1028 -0.948502 18.5881 4.28409 23.8207L13.6179 33.1545L4.28409 42.4883C-0.948502 47.7209 -0.948502 56.2062 4.28409 61.4387C9.51668 66.6713 18.002 66.6713 23.2345 61.4387L32.5684 52.1049L41.9022 61.4387C47.1348 66.6713 55.62 66.6713 60.8526 61.4387C66.0852 56.2062 66.0852 47.7209 60.8526 42.4883Z" fill="#B28CF5"/>
</svg>
