<svg width="540" height="110" viewBox="0 0 540 110" fill="none" xmlns="http://www.w3.org/2000/svg">
<path opacity="0.8" d="M0.974609 108.148L0.974609 2.09375L72.166 2.09375V20.2578L22.9473 20.2578L22.9473 46.0391L68.5039 46.0391V64.2031L22.9473 64.2031L22.9473 89.9844L72.3125 89.9844L72.3125 108.148L0.974609 108.148ZM126.658 108.148H89.3047L89.3047 2.09375H127.098C159.031 2.09375 178.514 22.0156 178.514 54.9746C178.514 88.2266 159.031 108.148 126.658 108.148ZM111.277 89.252H125.779C145.994 89.252 156.541 78.7051 156.541 54.9746C156.541 31.3906 145.994 20.9902 125.926 20.9902H111.277V89.252ZM231.834 108.148L194.48 108.148L194.48 2.09375L232.273 2.09375C264.207 2.09375 283.689 22.0156 283.689 54.9746C283.689 88.2266 264.207 108.148 231.834 108.148ZM216.453 89.252L230.955 89.252C251.17 89.252 261.717 78.7051 261.717 54.9746C261.717 31.3906 251.17 20.9902 231.102 20.9902H216.453L216.453 89.252ZM321.629 2.09375V108.148H299.656V2.09375L321.629 2.09375ZM427.977 2.09375V108.148H408.934L362.352 40.7656H361.473V108.148H339.5V2.09375L358.836 2.09375L405.125 69.4766H406.15V2.09375H427.977ZM516.307 36.2246C513.377 26.2637 505.32 20.1113 493.748 20.1113C477.342 20.1113 466.209 32.709 466.209 54.9746C466.209 77.3867 477.049 90.1309 493.895 90.1309C509.056 90.1309 518.064 81.5615 518.357 68.1582H495.359V51.6055H539.598V64.7891C539.598 92.6211 520.555 109.613 493.748 109.613C464.012 109.613 443.797 88.8125 443.797 55.2676C443.797 20.8437 465.33 0.628906 493.309 0.628906C517.186 0.628906 535.643 15.2773 538.572 36.2246H516.307Z" fill="white" fill-opacity="0.7"/>
</svg>
