<svg width="516" height="107" viewBox="0 0 516 107" fill="none" xmlns="http://www.w3.org/2000/svg">
<path opacity="0.8" d="M0.935547 0.398438L28.1816 0.398437L57.625 72.3223H58.7969L88.2402 0.398437L115.486 0.398437L115.486 106.453H94.0996L94.0996 37.0195H93.2207L65.5352 106.014H50.8867L23.2012 36.7266H22.3223L22.3223 106.453H0.935547L0.935547 0.398438ZM151.082 106.453H127.352L164.119 0.398437L192.391 0.398437L229.012 106.453L205.428 106.453L197.518 81.9902H159.139L151.082 106.453ZM164.705 64.8516L191.951 64.8516L178.621 24.2754H177.889L164.705 64.8516ZM241.023 106.453L241.023 0.398437L262.996 0.398437V47.4199H264.461L302.986 0.398437L329.5 0.398437L289.949 47.8594L329.939 106.453H303.572L274.129 62.6543L262.996 76.1309V106.453H241.023ZM340.486 106.453V0.398437L411.678 0.398437V18.5625H362.459V44.3437H408.016V62.5078H362.459V88.2891L411.824 88.2891V106.453L340.486 106.453ZM428.816 0.398437L456.062 0.398437L485.506 72.3223H486.678L516.121 0.398437H543.367V106.453L521.98 106.453V37.0195H521.102L493.416 106.014H478.768L451.082 36.7266H450.203V106.453H428.816V0.398437Z" fill="white" fill-opacity="0.7"/>
</svg>
