<svg width="75" height="75" viewBox="0 0 75 75" fill="none" xmlns="http://www.w3.org/2000/svg">
<path d="M70.0343 48.4363L59.3502 37.7521L70.0343 27.068C76.0239 21.0785 76.0239 11.3656 70.0343 5.37608C64.0447 -0.613497 54.3319 -0.613499 48.3423 5.37607L37.6582 16.0602L26.9741 5.37607C20.9845 -0.613499 11.2717 -0.613497 5.28213 5.37608C-0.707445 11.3656 -0.707446 21.0785 5.28213 27.068L15.9662 37.7521L5.28213 48.4363C-0.707447 54.4258 -0.707445 64.1387 5.28213 70.1282C11.2717 76.1178 20.9845 76.1178 26.9741 70.1282L37.6582 59.4441L48.3423 70.1282C54.3319 76.1178 64.0447 76.1178 70.0343 70.1282C76.0239 64.1387 76.0239 54.4258 70.0343 48.4363Z" fill="#82E90A"/>
</svg>
