<svg width="40" height="40" viewBox="0 0 40 40" fill="none" xmlns="http://www.w3.org/2000/svg">
<circle cx="20" cy="20" r="20" fill="#F5F5F5"/>
<path fill-rule="evenodd" clip-rule="evenodd" d="M27.6358 12.3645C27.6965 12.425 27.7447 12.497 27.7776 12.5762C27.8104 12.6555 27.8274 12.7404 27.8274 12.8262C27.8274 12.912 27.8104 12.9969 27.7776 13.0761C27.7447 13.1554 27.6965 13.2273 27.6358 13.2879L13.2879 27.6358C13.1655 27.7582 12.9994 27.827 12.8262 27.827C12.653 27.827 12.4869 27.7582 12.3645 27.6358C12.242 27.5133 12.1732 27.3472 12.1732 27.174C12.1732 27.0008 12.242 26.8347 12.3645 26.7123L26.7123 12.3645C26.7729 12.3037 26.8448 12.2555 26.9241 12.2227C27.0033 12.1898 27.0882 12.1729 27.174 12.1729C27.2598 12.1729 27.3447 12.1898 27.424 12.2227C27.5032 12.2555 27.5752 12.3037 27.6358 12.3645Z" fill="#8E8E8E"/>
<path fill-rule="evenodd" clip-rule="evenodd" d="M12.3645 12.3645C12.3037 12.425 12.2555 12.497 12.2227 12.5762C12.1898 12.6555 12.1729 12.7404 12.1729 12.8262C12.1729 12.912 12.1898 12.9969 12.2227 13.0761C12.2555 13.1554 12.3037 13.2273 12.3645 13.2879L26.7123 27.6358C26.8347 27.7582 27.0008 27.827 27.174 27.827C27.3472 27.827 27.5133 27.7582 27.6358 27.6358C27.7582 27.5133 27.827 27.3472 27.827 27.174C27.827 27.0008 27.7582 26.8347 27.6358 26.7123L13.2879 12.3645C13.2273 12.3037 13.1554 12.2555 13.0761 12.2227C12.9969 12.1898 12.912 12.1729 12.8262 12.1729C12.7404 12.1729 12.6555 12.1898 12.5762 12.2227C12.497 12.2555 12.425 12.3037 12.3645 12.3645Z" fill="#8E8E8E"/>
</svg>
