<svg width="28" height="27" viewBox="0 0 28 27" fill="none" xmlns="http://www.w3.org/2000/svg">
<path d="M10.6758 1C8.76214 1 6.89142 1.56748 5.30023 2.63067C3.70905 3.69387 2.46887 5.20502 1.73653 6.97305C1.00419 8.74108 0.812579 10.6866 1.18592 12.5635C1.55927 14.4404 2.4808 16.1645 3.83399 17.5177C5.18718 18.8709 6.91125 19.7924 8.78818 20.1657C10.6651 20.5391 12.6106 20.3475 14.3786 19.6151C16.1466 18.8828 17.6578 17.6426 18.721 16.0514C19.7842 14.4603 20.3517 12.5895 20.3517 10.6758C20.3515 8.10969 19.332 5.6487 17.5175 3.83417C15.703 2.01963 13.242 1.00016 10.6758 1Z" stroke="white" stroke-width="2" stroke-miterlimit="10"/>
<path d="M20.248 18.957L26.9332 25.6422" stroke="white" stroke-width="2" stroke-miterlimit="10" stroke-linecap="round"/>
</svg>
