<svg width="18" height="22" viewBox="0 0 18 22" fill="none" xmlns="http://www.w3.org/2000/svg">
<path d="M9.02234 21.9069C9.02234 21.9069 17.1884 14.1682 17.1884 8.29688C17.1884 6.13111 16.328 4.05405 14.7966 2.52263C13.2652 0.991205 11.1881 0.130859 9.02234 0.130859C6.85658 0.130859 4.77952 0.991205 3.24809 2.52263C1.71667 4.05405 0.856323 6.13111 0.856323 8.29688C0.856323 14.1682 9.02234 21.9069 9.02234 21.9069ZM9.02234 12.3799C7.93946 12.3799 6.90093 11.9497 6.13522 11.184C5.3695 10.4183 4.93933 9.37976 4.93933 8.29688C4.93933 7.21399 5.3695 6.17547 6.13522 5.40975C6.90093 4.64404 7.93946 4.21387 9.02234 4.21387C10.1052 4.21387 11.1437 4.64404 11.9095 5.40975C12.6752 6.17547 13.1053 7.21399 13.1053 8.29688C13.1053 9.37976 12.6752 10.4183 11.9095 11.184C11.1437 11.9497 10.1052 12.3799 9.02234 12.3799Z" fill="#4C566C"/>
</svg>
